{
	"asset":{
		"generator":"Created using the official Cinema 4D glTF Exporter 1.000x284978",
		"version":"2.0"
	},
	"scenes":[{
		"nodes":[0,
		10,
		12,
		13]
	}],
	"nodes":[{
		"name":"Cloner",
		"translation":[0.0,
		87.90129089355469,
		19.601335525512697],
		"rotation":[0.0,
		0.0,
		0.0,
		-1.0],
		"scale":[1.0,
		1.0,
		1.0],
		"children":[1,
		2,
		3,
		4,
		5,
		6,
		7,
		8,
		9]
	},
	{
		"name":"Cube 0",
		"translation":[-60.0,
		0.0,
		0.0],
		"rotation":[0.0,
		0.0,
		0.7071067690849304,
		0.7071067690849304],
		"scale":[1.0,
		1.0,
		1.0],
		"mesh":0
	},
	{
		"name":"Cube 1",
		"translation":[-55.41048049926758,
		23.01474380493164,
		0.0],
		"rotation":[0.0,
		0.0,
		0.5551670789718628,
		0.8317388892173767],
		"scale":[1.0,
		1.0,
		1.0],
		"mesh":1
	},
	{
		"name":"Cube 2",
		"translation":[-42.344051361083987,
		42.508602142333987,
		0.0],
		"rotation":[0.0,
		0.0,
		0.38178741931915285,
		0.9242501854896545],
		"scale":[1.0,
		1.0,
		1.0],
		"mesh":2
	},
	{
		"name":"Cube 3",
		"translation":[-22.79966163635254,
		55.49932861328125,
		0.0],
		"rotation":[0.0,
		0.0,
		0.19366362690925599,
		0.9810680150985718],
		"scale":[1.0,
		1.0,
		1.0],
		"mesh":3
	},
	{
		"name":"Cube 4",
		"translation":[0.23270998895168305,
		59.999549865722659,
		0.0],
		"rotation":[0.0,
		0.0,
		0.0019392535323277116,
		-0.9999980926513672],
		"scale":[1.0,
		1.0,
		1.0],
		"mesh":4
	},
	{
		"name":"Cube 5",
		"translation":[23.229480743408204,
		55.320804595947269,
		0.0],
		"rotation":[0.0,
		0.0,
		0.19746723771095277,
		-0.9803094863891602],
		"scale":[1.0,
		1.0,
		1.0],
		"mesh":5
	},
	{
		"name":"Cube 6",
		"translation":[42.672515869140628,
		42.178863525390628,
		0.0],
		"rotation":[0.0,
		0.0,
		0.38536927103996279,
		-0.9227624535560608],
		"scale":[1.0,
		1.0,
		1.0],
		"mesh":6
	},
	{
		"name":"Cube 7",
		"translation":[55.587337493896487,
		22.58423614501953,
		0.0],
		"rotation":[0.0,
		0.0,
		0.5583887696266174,
		-0.8295794129371643],
		"scale":[1.0,
		1.0,
		1.0],
		"mesh":7
	},
	{
		"name":"Cube 8",
		"translation":[59.99819564819336,
		-0.46541646122932436,
		0.0],
		"rotation":[0.0,
		0.0,
		0.7098439931869507,
		-0.7043589353561401],
		"scale":[1.0,
		1.0,
		1.0],
		"mesh":8
	},
	{
		"name":"Extrude",
		"translation":[0.0,
		86.77519226074219,
		24.65311050415039],
		"rotation":[0.0,
		0.0,
		0.5684053301811218,
		-0.8227486610412598],
		"scale":[1.0,
		1.0,
		1.0],
		"children":[11]
	},
	{
		"name":"Extrude",
		"mesh":9
	},
	{
		"name":"Cylinder",
		"translation":[0.0,
		80.0,
		0.0],
		"rotation":[0.0,
		0.0,
		0.0,
		-1.0],
		"scale":[1.0,
		1.0,
		1.0],
		"mesh":10
	},
	{
		"name":"Camera",
		"translation":[119.31768035888672,
		245.19076538085938,
		214.81576538085938],
		"rotation":[0.2415955811738968,
		-0.2337838113307953,
		-0.06009429320693016,
		-0.9398751854896545],
		"scale":[1.0,
		1.0,
		1.0],
		"camera":0
	}],
	"meshes":[{
		"name":"Cube 0",
		"primitives":[{
			"attributes":{
				"POSITION":1,
				"NORMAL":2,
				"TEXCOORD_0":3
			},
			"indices":0,
			"material":0
		}]
	},
	{
		"name":"Cube 1",
		"primitives":[{
			"attributes":{
				"POSITION":5,
				"NORMAL":6,
				"TEXCOORD_0":7
			},
			"indices":4,
			"material":0
		}]
	},
	{
		"name":"Cube 2",
		"primitives":[{
			"attributes":{
				"POSITION":9,
				"NORMAL":10,
				"TEXCOORD_0":11
			},
			"indices":8,
			"material":0
		}]
	},
	{
		"name":"Cube 3",
		"primitives":[{
			"attributes":{
				"POSITION":13,
				"NORMAL":14,
				"TEXCOORD_0":15
			},
			"indices":12,
			"material":0
		}]
	},
	{
		"name":"Cube 4",
		"primitives":[{
			"attributes":{
				"POSITION":17,
				"NORMAL":18,
				"TEXCOORD_0":19
			},
			"indices":16,
			"material":0
		}]
	},
	{
		"name":"Cube 5",
		"primitives":[{
			"attributes":{
				"POSITION":21,
				"NORMAL":22,
				"TEXCOORD_0":23
			},
			"indices":20,
			"material":0
		}]
	},
	{
		"name":"Cube 6",
		"primitives":[{
			"attributes":{
				"POSITION":25,
				"NORMAL":26,
				"TEXCOORD_0":27
			},
			"indices":24,
			"material":0
		}]
	},
	{
		"name":"Cube 7",
		"primitives":[{
			"attributes":{
				"POSITION":29,
				"NORMAL":30,
				"TEXCOORD_0":31
			},
			"indices":28,
			"material":0
		}]
	},
	{
		"name":"Cube 8",
		"primitives":[{
			"attributes":{
				"POSITION":33,
				"NORMAL":34,
				"TEXCOORD_0":35
			},
			"indices":32,
			"material":0
		}]
	},
	{
		"name":"Extrude",
		"primitives":[{
			"attributes":{
				"POSITION":37,
				"NORMAL":38,
				"TEXCOORD_0":39
			},
			"indices":36,
			"material":1
		}]
	},
	{
		"name":"Cylinder",
		"primitives":[{
			"attributes":{
				"POSITION":41,
				"NORMAL":42,
				"TEXCOORD_0":43
			},
			"indices":40,
			"material":0
		}]
	}],
	"cameras":[{
		"type":"perspective",
		"perspective":{
			"znear":0.009999999776482582,
			"zfar":10000000000.0,
			"aspectRatio":1.7777777910232545,
			"yfov":0.5483348965644836
		}
	}],
	"accessors":[{
		"min":[0],
		"bufferView":0,
		"type":"SCALAR",
		"componentType":5123,
		"count":612,
		"byteOffset":0,
		"max":[165]
	},
	{
		"min":[-1.5,
		-5.0,
		-2.5],
		"bufferView":1,
		"type":"VEC3",
		"componentType":5126,
		"count":166,
		"byteOffset":0,
		"max":[1.5,
		5.0,
		2.5]
	},
	{
		"min":[-0.983273983001709,
		-0.9865115880966187,
		-0.983273983001709],
		"bufferView":1,
		"type":"VEC3",
		"componentType":5126,
		"count":166,
		"byteOffset":12,
		"max":[0.983273983001709,
		0.9865115880966187,
		0.983273983001709]
	},
	{
		"min":[0.0,
		0.0],
		"bufferView":1,
		"type":"VEC2",
		"componentType":5126,
		"count":166,
		"byteOffset":24,
		"max":[1.0,
		1.0]
	},
	{
		"min":[0],
		"bufferView":2,
		"type":"SCALAR",
		"componentType":5123,
		"count":612,
		"byteOffset":0,
		"max":[165]
	},
	{
		"min":[-1.5,
		-5.0,
		-2.5],
		"bufferView":3,
		"type":"VEC3",
		"componentType":5126,
		"count":166,
		"byteOffset":0,
		"max":[1.5,
		5.0,
		2.5]
	},
	{
		"min":[-0.983273983001709,
		-0.9865115880966187,
		-0.983273983001709],
		"bufferView":3,
		"type":"VEC3",
		"componentType":5126,
		"count":166,
		"byteOffset":12,
		"max":[0.983273983001709,
		0.9865115880966187,
		0.983273983001709]
	},
	{
		"min":[0.0,
		0.0],
		"bufferView":3,
		"type":"VEC2",
		"componentType":5126,
		"count":166,
		"byteOffset":24,
		"max":[1.0,
		1.0]
	},
	{
		"min":[0],
		"bufferView":4,
		"type":"SCALAR",
		"componentType":5123,
		"count":612,
		"byteOffset":0,
		"max":[165]
	},
	{
		"min":[-1.5,
		-5.0,
		-2.5],
		"bufferView":5,
		"type":"VEC3",
		"componentType":5126,
		"count":166,
		"byteOffset":0,
		"max":[1.5,
		5.0,
		2.5]
	},
	{
		"min":[-0.983273983001709,
		-0.9865115880966187,
		-0.983273983001709],
		"bufferView":5,
		"type":"VEC3",
		"componentType":5126,
		"count":166,
		"byteOffset":12,
		"max":[0.983273983001709,
		0.9865115880966187,
		0.983273983001709]
	},
	{
		"min":[0.0,
		0.0],
		"bufferView":5,
		"type":"VEC2",
		"componentType":5126,
		"count":166,
		"byteOffset":24,
		"max":[1.0,
		1.0]
	},
	{
		"min":[0],
		"bufferView":6,
		"type":"SCALAR",
		"componentType":5123,
		"count":612,
		"byteOffset":0,
		"max":[165]
	},
	{
		"min":[-1.5,
		-5.0,
		-2.5],
		"bufferView":7,
		"type":"VEC3",
		"componentType":5126,
		"count":166,
		"byteOffset":0,
		"max":[1.5,
		5.0,
		2.5]
	},
	{
		"min":[-0.983273983001709,
		-0.9865115880966187,
		-0.983273983001709],
		"bufferView":7,
		"type":"VEC3",
		"componentType":5126,
		"count":166,
		"byteOffset":12,
		"max":[0.983273983001709,
		0.9865115880966187,
		0.983273983001709]
	},
	{
		"min":[0.0,
		0.0],
		"bufferView":7,
		"type":"VEC2",
		"componentType":5126,
		"count":166,
		"byteOffset":24,
		"max":[1.0,
		1.0]
	},
	{
		"min":[0],
		"bufferView":8,
		"type":"SCALAR",
		"componentType":5123,
		"count":612,
		"byteOffset":0,
		"max":[165]
	},
	{
		"min":[-1.5,
		-5.0,
		-2.5],
		"bufferView":9,
		"type":"VEC3",
		"componentType":5126,
		"count":166,
		"byteOffset":0,
		"max":[1.5,
		5.0,
		2.5]
	},
	{
		"min":[-0.983273983001709,
		-0.9865115880966187,
		-0.983273983001709],
		"bufferView":9,
		"type":"VEC3",
		"componentType":5126,
		"count":166,
		"byteOffset":12,
		"max":[0.983273983001709,
		0.9865115880966187,
		0.983273983001709]
	},
	{
		"min":[0.0,
		0.0],
		"bufferView":9,
		"type":"VEC2",
		"componentType":5126,
		"count":166,
		"byteOffset":24,
		"max":[1.0,
		1.0]
	},
	{
		"min":[0],
		"bufferView":10,
		"type":"SCALAR",
		"componentType":5123,
		"count":612,
		"byteOffset":0,
		"max":[165]
	},
	{
		"min":[-1.5,
		-5.0,
		-2.5],
		"bufferView":11,
		"type":"VEC3",
		"componentType":5126,
		"count":166,
		"byteOffset":0,
		"max":[1.5,
		5.0,
		2.5]
	},
	{
		"min":[-0.983273983001709,
		-0.9865115880966187,
		-0.983273983001709],
		"bufferView":11,
		"type":"VEC3",
		"componentType":5126,
		"count":166,
		"byteOffset":12,
		"max":[0.983273983001709,
		0.9865115880966187,
		0.983273983001709]
	},
	{
		"min":[0.0,
		0.0],
		"bufferView":11,
		"type":"VEC2",
		"componentType":5126,
		"count":166,
		"byteOffset":24,
		"max":[1.0,
		1.0]
	},
	{
		"min":[0],
		"bufferView":12,
		"type":"SCALAR",
		"componentType":5123,
		"count":612,
		"byteOffset":0,
		"max":[165]
	},
	{
		"min":[-1.5,
		-5.0,
		-2.5],
		"bufferView":13,
		"type":"VEC3",
		"componentType":5126,
		"count":166,
		"byteOffset":0,
		"max":[1.5,
		5.0,
		2.5]
	},
	{
		"min":[-0.983273983001709,
		-0.9865115880966187,
		-0.983273983001709],
		"bufferView":13,
		"type":"VEC3",
		"componentType":5126,
		"count":166,
		"byteOffset":12,
		"max":[0.983273983001709,
		0.9865115880966187,
		0.983273983001709]
	},
	{
		"min":[0.0,
		0.0],
		"bufferView":13,
		"type":"VEC2",
		"componentType":5126,
		"count":166,
		"byteOffset":24,
		"max":[1.0,
		1.0]
	},
	{
		"min":[0],
		"bufferView":14,
		"type":"SCALAR",
		"componentType":5123,
		"count":612,
		"byteOffset":0,
		"max":[165]
	},
	{
		"min":[-1.5,
		-5.0,
		-2.5],
		"bufferView":15,
		"type":"VEC3",
		"componentType":5126,
		"count":166,
		"byteOffset":0,
		"max":[1.5,
		5.0,
		2.5]
	},
	{
		"min":[-0.983273983001709,
		-0.9865115880966187,
		-0.983273983001709],
		"bufferView":15,
		"type":"VEC3",
		"componentType":5126,
		"count":166,
		"byteOffset":12,
		"max":[0.983273983001709,
		0.9865115880966187,
		0.983273983001709]
	},
	{
		"min":[0.0,
		0.0],
		"bufferView":15,
		"type":"VEC2",
		"componentType":5126,
		"count":166,
		"byteOffset":24,
		"max":[1.0,
		1.0]
	},
	{
		"min":[0],
		"bufferView":16,
		"type":"SCALAR",
		"componentType":5123,
		"count":612,
		"byteOffset":0,
		"max":[165]
	},
	{
		"min":[-1.5,
		-5.0,
		-2.5],
		"bufferView":17,
		"type":"VEC3",
		"componentType":5126,
		"count":166,
		"byteOffset":0,
		"max":[1.5,
		5.0,
		2.5]
	},
	{
		"min":[-0.983273983001709,
		-0.9865115880966187,
		-0.983273983001709],
		"bufferView":17,
		"type":"VEC3",
		"componentType":5126,
		"count":166,
		"byteOffset":12,
		"max":[0.983273983001709,
		0.9865115880966187,
		0.983273983001709]
	},
	{
		"min":[0.0,
		0.0],
		"bufferView":17,
		"type":"VEC2",
		"componentType":5126,
		"count":166,
		"byteOffset":24,
		"max":[1.0,
		1.0]
	},
	{
		"min":[0],
		"bufferView":18,
		"type":"SCALAR",
		"componentType":5123,
		"count":36,
		"byteOffset":0,
		"max":[23]
	},
	{
		"min":[-7.5,
		-2.075437545776367,
		-3.0],
		"bufferView":19,
		"type":"VEC3",
		"componentType":5126,
		"count":24,
		"byteOffset":0,
		"max":[7.5,
		67.924560546875,
		0.0]
	},
	{
		"min":[-0.996951699256897,
		-1.0,
		-1.0],
		"bufferView":19,
		"type":"VEC3",
		"componentType":5126,
		"count":24,
		"byteOffset":12,
		"max":[0.996951699256897,
		1.0,
		1.0]
	},
	{
		"min":[0.0,
		0.0],
		"bufferView":19,
		"type":"VEC2",
		"componentType":5126,
		"count":24,
		"byteOffset":24,
		"max":[1.0,
		1.0]
	},
	{
		"min":[0],
		"bufferView":20,
		"type":"SCALAR",
		"componentType":5123,
		"count":4290,
		"byteOffset":0,
		"max":[866]
	},
	{
		"min":[-80.0,
		-9.797174397164869e-15,
		-20.0],
		"bufferView":21,
		"type":"VEC3",
		"componentType":5126,
		"count":867,
		"byteOffset":0,
		"max":[80.0,
		80.0,
		20.0]
	},
	{
		"min":[-0.99969881772995,
		-1.0,
		-1.0],
		"bufferView":21,
		"type":"VEC3",
		"componentType":5126,
		"count":867,
		"byteOffset":12,
		"max":[0.99969881772995,
		0.9999999403953552,
		1.0]
	},
	{
		"min":[0.0,
		0.0],
		"bufferView":21,
		"type":"VEC2",
		"componentType":5126,
		"count":867,
		"byteOffset":24,
		"max":[1.0,
		1.0]
	}],
	"bufferViews":[{
		"buffer":0,
		"byteOffset":0,
		"byteLength":1224,
		"target":34963
	},
	{
		"buffer":0,
		"byteOffset":1224,
		"byteLength":5312,
		"target":34962,
		"byteStride":32
	},
	{
		"buffer":1,
		"byteOffset":0,
		"byteLength":1224,
		"target":34963
	},
	{
		"buffer":1,
		"byteOffset":1224,
		"byteLength":5312,
		"target":34962,
		"byteStride":32
	},
	{
		"buffer":2,
		"byteOffset":0,
		"byteLength":1224,
		"target":34963
	},
	{
		"buffer":2,
		"byteOffset":1224,
		"byteLength":5312,
		"target":34962,
		"byteStride":32
	},
	{
		"buffer":3,
		"byteOffset":0,
		"byteLength":1224,
		"target":34963
	},
	{
		"buffer":3,
		"byteOffset":1224,
		"byteLength":5312,
		"target":34962,
		"byteStride":32
	},
	{
		"buffer":4,
		"byteOffset":0,
		"byteLength":1224,
		"target":34963
	},
	{
		"buffer":4,
		"byteOffset":1224,
		"byteLength":5312,
		"target":34962,
		"byteStride":32
	},
	{
		"buffer":5,
		"byteOffset":0,
		"byteLength":1224,
		"target":34963
	},
	{
		"buffer":5,
		"byteOffset":1224,
		"byteLength":5312,
		"target":34962,
		"byteStride":32
	},
	{
		"buffer":6,
		"byteOffset":0,
		"byteLength":1224,
		"target":34963
	},
	{
		"buffer":6,
		"byteOffset":1224,
		"byteLength":5312,
		"target":34962,
		"byteStride":32
	},
	{
		"buffer":7,
		"byteOffset":0,
		"byteLength":1224,
		"target":34963
	},
	{
		"buffer":7,
		"byteOffset":1224,
		"byteLength":5312,
		"target":34962,
		"byteStride":32
	},
	{
		"buffer":8,
		"byteOffset":0,
		"byteLength":1224,
		"target":34963
	},
	{
		"buffer":8,
		"byteOffset":1224,
		"byteLength":5312,
		"target":34962,
		"byteStride":32
	},
	{
		"buffer":9,
		"byteOffset":0,
		"byteLength":72,
		"target":34963
	},
	{
		"buffer":9,
		"byteOffset":72,
		"byteLength":768,
		"target":34962,
		"byteStride":32
	},
	{
		"buffer":10,
		"byteOffset":0,
		"byteLength":8580,
		"target":34963
	},
	{
		"buffer":10,
		"byteOffset":8580,
		"byteLength":27744,
		"target":34962,
		"byteStride":32
	}],
	"materials":[{
		"pbrMetallicRoughness":{
			"baseColorFactor":[0.04313725490196079,
			0.04313725490196079,
			0.07058823529411765,
			1.0],
			"metallicFactor":0.0,
			"roughnessFactor":0.5
		},
		"emissiveFactor":[0.0,
		0.0,
		0.0],
		"alphaMode":"OPAQUE",
		"doubleSided":false,
		"name":"Dark 2"
	},
	{
		"pbrMetallicRoughness":{
			"baseColorFactor":[0.9294117647058824,
			0.403921568627451,
			0.0,
			1.0],
			"metallicFactor":0.0,
			"roughnessFactor":0.5
		},
		"emissiveFactor":[0.0,
		0.0,
		0.0],
		"alphaMode":"OPAQUE",
		"doubleSided":false,
		"name":"Orange 2"
	}],
	"buffers":[{
		"uri":"data:application/octet-stream;base64,",
		"byteLength":6536
	},
	{
		"uri":"data:application/octet-stream;base64,",
		"byteLength":6536
	},
	{
		"uri":"data:application/octet-stream;base64,",
		"byteLength":6536
	},
	{
		"uri":"data:application/octet-stream;base64,",
		"byteLength":6536
	},
	{
		"uri":"data:application/octet-stream;base64,",
		"byteLength":6536
	},
	{
		"uri":"data:application/octet-stream;base64,",
		"byteLength":6536
	},
	{
		"uri":"data:application/octet-stream;base64,",
		"byteLength":6536
	},
	{
		"uri":"data:application/octet-stream;base64,",
		"byteLength":6536
	},
	{
		"uri":"data:application/octet-stream;base64,",
		"byteLength":6536
	},
	{
		"uri":"data:application/octet-stream;base64,",
		"byteLength":840
	},
	{
		"uri":"data:application/octet-stream;base64,",
		"byteLength":36324
	}]
}