{
	"asset":{
		"generator":"Created using the official Cinema 4D glTF Exporter 1.000x284978",
		"version":"2.0"
	},
	"scenes":[{
		"nodes":[0,
		5,
		6,
		7,
		17,
		18]
	}],
	"nodes":[{
		"name":"Cloner.1",
		"translation":[-32.30671691894531,
		22.362401962280275,
		38.7147216796875],
		"rotation":[0.0,
		0.0,
		0.0,
		-1.0],
		"scale":[1.0,
		1.0,
		1.0],
		"children":[1,
		2,
		3,
		4]
	},
	{
		"name":"Cube.1 0",
		"translation":[-30.0,
		0.0,
		30.0],
		"rotation":[0.0,
		0.0,
		0.0,
		-1.0],
		"scale":[1.0,
		1.0,
		1.0],
		"mesh":0
	},
	{
		"name":"Cube.1 1",
		"translation":[30.0,
		0.0,
		30.0],
		"rotation":[0.0,
		0.0,
		0.0,
		-1.0],
		"scale":[1.0,
		1.0,
		1.0],
		"mesh":1
	},
	{
		"name":"Cube.1 2",
		"translation":[-30.0,
		0.0,
		-30.0],
		"rotation":[0.0,
		0.0,
		0.0,
		-1.0],
		"scale":[1.0,
		1.0,
		1.0],
		"mesh":2
	},
	{
		"name":"Cube.1 3",
		"translation":[30.0,
		0.0,
		-30.0],
		"rotation":[0.0,
		0.0,
		0.0,
		-1.0],
		"scale":[1.0,
		1.0,
		1.0],
		"mesh":3
	},
	{
		"name":"Cube.2",
		"translation":[1.2441985607147217,
		33.62261962890625,
		-47.16881561279297],
		"rotation":[0.21532754600048066,
		0.6735236048698425,
		0.21532754600048066,
		0.6735236048698425],
		"scale":[1.0,
		1.0,
		1.0],
		"mesh":4
	},
	{
		"name":"Big btn",
		"translation":[62.98390197753906,
		22.11813735961914,
		39.21951675415039],
		"rotation":[0.0,
		0.0,
		0.0,
		-1.0],
		"scale":[1.0,
		1.0,
		1.0],
		"mesh":5
	},
	{
		"name":"Cloner",
		"translation":[-0.6388261318206787,
		19.805072784423829,
		38.7147216796875],
		"rotation":[0.0,
		0.0,
		0.0,
		-1.0],
		"scale":[1.0,
		1.0,
		1.0],
		"children":[8,
		9,
		10,
		11,
		12,
		13,
		14,
		15,
		16]
	},
	{
		"name":"Cube.1 0",
		"translation":[-60.0,
		0.0,
		35.0],
		"rotation":[0.0,
		0.0,
		0.0,
		-1.0],
		"scale":[1.0,
		1.0,
		1.0],
		"mesh":6
	},
	{
		"name":"Cube.1 1",
		"translation":[0.0,
		0.0,
		35.0],
		"rotation":[0.0,
		0.0,
		0.0,
		-1.0],
		"scale":[1.0,
		1.0,
		1.0],
		"mesh":7
	},
	{
		"name":"Cube.1 2",
		"translation":[60.0,
		0.0,
		35.0],
		"rotation":[0.0,
		0.0,
		0.0,
		-1.0],
		"scale":[1.0,
		1.0,
		1.0],
		"mesh":8
	},
	{
		"name":"Cube.1 3",
		"translation":[-60.0,
		0.0,
		0.0],
		"rotation":[0.0,
		0.0,
		0.0,
		-1.0],
		"scale":[1.0,
		1.0,
		1.0],
		"mesh":9
	},
	{
		"name":"Cube.1 4",
		"mesh":10
	},
	{
		"name":"Cube.1 5",
		"translation":[60.0,
		0.0,
		0.0],
		"rotation":[0.0,
		0.0,
		0.0,
		-1.0],
		"scale":[1.0,
		1.0,
		1.0],
		"mesh":11
	},
	{
		"name":"Cube.1 6",
		"translation":[-60.0,
		0.0,
		-35.0],
		"rotation":[0.0,
		0.0,
		0.0,
		-1.0],
		"scale":[1.0,
		1.0,
		1.0],
		"mesh":12
	},
	{
		"name":"Cube.1 7",
		"translation":[0.0,
		0.0,
		-35.0],
		"rotation":[0.0,
		0.0,
		0.0,
		-1.0],
		"scale":[1.0,
		1.0,
		1.0],
		"mesh":13
	},
	{
		"name":"Cube.1 8",
		"translation":[60.0,
		0.0,
		-35.0],
		"rotation":[0.0,
		0.0,
		0.0,
		-1.0],
		"scale":[1.0,
		1.0,
		1.0],
		"mesh":14
	},
	{
		"name":"Cube",
		"translation":[0.0,
		9.64412784576416,
		0.0],
		"rotation":[0.0,
		0.0,
		0.0,
		-1.0],
		"scale":[1.0,
		1.0,
		1.0],
		"mesh":15
	},
	{
		"name":"Camera",
		"translation":[153.4829864501953,
		174.41372680664063,
		299.2045593261719],
		"rotation":[0.2415955811738968,
		-0.2337838113307953,
		-0.06009429320693016,
		-0.9398751854896545],
		"scale":[1.0,
		1.0,
		1.0],
		"camera":0
	}],
	"meshes":[{
		"name":"Cube.1 0",
		"primitives":[{
			"attributes":{
				"POSITION":1,
				"NORMAL":2,
				"TEXCOORD_0":3
			},
			"indices":0,
			"material":0
		}]
	},
	{
		"name":"Cube.1 1",
		"primitives":[{
			"attributes":{
				"POSITION":5,
				"NORMAL":6,
				"TEXCOORD_0":7
			},
			"indices":4,
			"material":0
		}]
	},
	{
		"name":"Cube.1 2",
		"primitives":[{
			"attributes":{
				"POSITION":9,
				"NORMAL":10,
				"TEXCOORD_0":11
			},
			"indices":8,
			"material":0
		}]
	},
	{
		"name":"Cube.1 3",
		"primitives":[{
			"attributes":{
				"POSITION":13,
				"NORMAL":14,
				"TEXCOORD_0":15
			},
			"indices":12,
			"material":0
		}]
	},
	{
		"name":"Cube.2",
		"primitives":[{
			"attributes":{
				"POSITION":17,
				"NORMAL":18,
				"TEXCOORD_0":19
			},
			"indices":16,
			"material":1
		}]
	},
	{
		"name":"Big btn",
		"primitives":[{
			"attributes":{
				"POSITION":21,
				"NORMAL":22,
				"TEXCOORD_0":23
			},
			"indices":20,
			"material":0
		}]
	},
	{
		"name":"Cube.1 0",
		"primitives":[{
			"attributes":{
				"POSITION":25,
				"NORMAL":26,
				"TEXCOORD_0":27
			},
			"indices":24,
			"material":0
		}]
	},
	{
		"name":"Cube.1 1",
		"primitives":[{
			"attributes":{
				"POSITION":29,
				"NORMAL":30,
				"TEXCOORD_0":31
			},
			"indices":28,
			"material":0
		}]
	},
	{
		"name":"Cube.1 2",
		"primitives":[{
			"attributes":{
				"POSITION":33,
				"NORMAL":34,
				"TEXCOORD_0":35
			},
			"indices":32,
			"material":0
		}]
	},
	{
		"name":"Cube.1 3",
		"primitives":[{
			"attributes":{
				"POSITION":37,
				"NORMAL":38,
				"TEXCOORD_0":39
			},
			"indices":36,
			"material":0
		}]
	},
	{
		"name":"Cube.1 4",
		"primitives":[{
			"attributes":{
				"POSITION":41,
				"NORMAL":42,
				"TEXCOORD_0":43
			},
			"indices":40,
			"material":0
		}]
	},
	{
		"name":"Cube.1 5",
		"primitives":[{
			"attributes":{
				"POSITION":45,
				"NORMAL":46,
				"TEXCOORD_0":47
			},
			"indices":44,
			"material":0
		}]
	},
	{
		"name":"Cube.1 6",
		"primitives":[{
			"attributes":{
				"POSITION":49,
				"NORMAL":50,
				"TEXCOORD_0":51
			},
			"indices":48,
			"material":0
		}]
	},
	{
		"name":"Cube.1 7",
		"primitives":[{
			"attributes":{
				"POSITION":53,
				"NORMAL":54,
				"TEXCOORD_0":55
			},
			"indices":52,
			"material":0
		}]
	},
	{
		"name":"Cube.1 8",
		"primitives":[{
			"attributes":{
				"POSITION":57,
				"NORMAL":58,
				"TEXCOORD_0":59
			},
			"indices":56,
			"material":0
		}]
	},
	{
		"name":"Cube",
		"primitives":[{
			"attributes":{
				"POSITION":61,
				"NORMAL":62,
				"TEXCOORD_0":63
			},
			"indices":60,
			"material":0
		}]
	}],
	"cameras":[{
		"type":"perspective",
		"perspective":{
			"znear":0.009999999776482582,
			"zfar":10000000000.0,
			"aspectRatio":1.7777777910232545,
			"yfov":0.5483348965644836
		}
	}],
	"accessors":[{
		"min":[0],
		"bufferView":0,
		"type":"SCALAR",
		"componentType":5123,
		"count":612,
		"byteOffset":0,
		"max":[165]
	},
	{
		"min":[-22.5,
		-2.5,
		-22.5],
		"bufferView":1,
		"type":"VEC3",
		"componentType":5126,
		"count":166,
		"byteOffset":0,
		"max":[22.5,
		2.5,
		22.5]
	},
	{
		"min":[-0.9832738637924194,
		-0.9865115880966187,
		-0.983273983001709],
		"bufferView":1,
		"type":"VEC3",
		"componentType":5126,
		"count":166,
		"byteOffset":12,
		"max":[0.9832738637924194,
		0.9865115880966187,
		0.983273983001709]
	},
	{
		"min":[0.0,
		0.0],
		"bufferView":1,
		"type":"VEC2",
		"componentType":5126,
		"count":166,
		"byteOffset":24,
		"max":[1.0,
		1.0]
	},
	{
		"min":[0],
		"bufferView":2,
		"type":"SCALAR",
		"componentType":5123,
		"count":612,
		"byteOffset":0,
		"max":[165]
	},
	{
		"min":[-22.5,
		-2.5,
		-22.5],
		"bufferView":3,
		"type":"VEC3",
		"componentType":5126,
		"count":166,
		"byteOffset":0,
		"max":[22.5,
		2.5,
		22.5]
	},
	{
		"min":[-0.9832738637924194,
		-0.9865115880966187,
		-0.983273983001709],
		"bufferView":3,
		"type":"VEC3",
		"componentType":5126,
		"count":166,
		"byteOffset":12,
		"max":[0.9832738637924194,
		0.9865115880966187,
		0.983273983001709]
	},
	{
		"min":[0.0,
		0.0],
		"bufferView":3,
		"type":"VEC2",
		"componentType":5126,
		"count":166,
		"byteOffset":24,
		"max":[1.0,
		1.0]
	},
	{
		"min":[0],
		"bufferView":4,
		"type":"SCALAR",
		"componentType":5123,
		"count":612,
		"byteOffset":0,
		"max":[165]
	},
	{
		"min":[-22.5,
		-2.5,
		-22.5],
		"bufferView":5,
		"type":"VEC3",
		"componentType":5126,
		"count":166,
		"byteOffset":0,
		"max":[22.5,
		2.5,
		22.5]
	},
	{
		"min":[-0.9832738637924194,
		-0.9865115880966187,
		-0.983273983001709],
		"bufferView":5,
		"type":"VEC3",
		"componentType":5126,
		"count":166,
		"byteOffset":12,
		"max":[0.9832738637924194,
		0.9865115880966187,
		0.983273983001709]
	},
	{
		"min":[0.0,
		0.0],
		"bufferView":5,
		"type":"VEC2",
		"componentType":5126,
		"count":166,
		"byteOffset":24,
		"max":[1.0,
		1.0]
	},
	{
		"min":[0],
		"bufferView":6,
		"type":"SCALAR",
		"componentType":5123,
		"count":612,
		"byteOffset":0,
		"max":[165]
	},
	{
		"min":[-22.5,
		-2.5,
		-22.5],
		"bufferView":7,
		"type":"VEC3",
		"componentType":5126,
		"count":166,
		"byteOffset":0,
		"max":[22.5,
		2.5,
		22.5]
	},
	{
		"min":[-0.9832738637924194,
		-0.9865115880966187,
		-0.983273983001709],
		"bufferView":7,
		"type":"VEC3",
		"componentType":5126,
		"count":166,
		"byteOffset":12,
		"max":[0.9832738637924194,
		0.9865115880966187,
		0.983273983001709]
	},
	{
		"min":[0.0,
		0.0],
		"bufferView":7,
		"type":"VEC2",
		"componentType":5126,
		"count":166,
		"byteOffset":24,
		"max":[1.0,
		1.0]
	},
	{
		"min":[0],
		"bufferView":8,
		"type":"SCALAR",
		"componentType":5123,
		"count":612,
		"byteOffset":0,
		"max":[205]
	},
	{
		"min":[-20.0,
		-2.5,
		-85.0],
		"bufferView":9,
		"type":"VEC3",
		"componentType":5126,
		"count":206,
		"byteOffset":0,
		"max":[20.0,
		2.5,
		85.0]
	},
	{
		"min":[-0.9625023603439331,
		-0.9865115880966187,
		-0.9625018835067749],
		"bufferView":9,
		"type":"VEC3",
		"componentType":5126,
		"count":206,
		"byteOffset":12,
		"max":[0.9625023603439331,
		0.9865115880966187,
		0.9625018835067749]
	},
	{
		"min":[0.0,
		0.0],
		"bufferView":9,
		"type":"VEC2",
		"componentType":5126,
		"count":206,
		"byteOffset":24,
		"max":[1.0,
		1.0]
	},
	{
		"min":[0],
		"bufferView":10,
		"type":"SCALAR",
		"componentType":5123,
		"count":612,
		"byteOffset":0,
		"max":[165]
	},
	{
		"min":[-22.5,
		-2.5,
		-52.85188293457031],
		"bufferView":11,
		"type":"VEC3",
		"componentType":5126,
		"count":166,
		"byteOffset":0,
		"max":[22.5,
		2.5,
		52.85188293457031]
	},
	{
		"min":[-0.9832738637924194,
		-0.9865115880966187,
		-0.9832738041877747],
		"bufferView":11,
		"type":"VEC3",
		"componentType":5126,
		"count":166,
		"byteOffset":12,
		"max":[0.9832738637924194,
		0.9865115880966187,
		0.9832738041877747]
	},
	{
		"min":[0.0,
		0.0],
		"bufferView":11,
		"type":"VEC2",
		"componentType":5126,
		"count":166,
		"byteOffset":24,
		"max":[1.0,
		1.0]
	},
	{
		"min":[0],
		"bufferView":12,
		"type":"SCALAR",
		"componentType":5123,
		"count":612,
		"byteOffset":0,
		"max":[165]
	},
	{
		"min":[-22.5,
		-2.5,
		-12.5],
		"bufferView":13,
		"type":"VEC3",
		"componentType":5126,
		"count":166,
		"byteOffset":0,
		"max":[22.5,
		2.5,
		12.5]
	},
	{
		"min":[-0.9832738637924194,
		-0.9865115880966187,
		-0.983273983001709],
		"bufferView":13,
		"type":"VEC3",
		"componentType":5126,
		"count":166,
		"byteOffset":12,
		"max":[0.9832738637924194,
		0.9865115880966187,
		0.9832740426063538]
	},
	{
		"min":[0.0,
		0.0],
		"bufferView":13,
		"type":"VEC2",
		"componentType":5126,
		"count":166,
		"byteOffset":24,
		"max":[1.0,
		1.0]
	},
	{
		"min":[0],
		"bufferView":14,
		"type":"SCALAR",
		"componentType":5123,
		"count":612,
		"byteOffset":0,
		"max":[165]
	},
	{
		"min":[-22.5,
		-2.5,
		-12.5],
		"bufferView":15,
		"type":"VEC3",
		"componentType":5126,
		"count":166,
		"byteOffset":0,
		"max":[22.5,
		2.5,
		12.5]
	},
	{
		"min":[-0.9832738637924194,
		-0.9865115880966187,
		-0.983273983001709],
		"bufferView":15,
		"type":"VEC3",
		"componentType":5126,
		"count":166,
		"byteOffset":12,
		"max":[0.9832738637924194,
		0.9865115880966187,
		0.9832740426063538]
	},
	{
		"min":[0.0,
		0.0],
		"bufferView":15,
		"type":"VEC2",
		"componentType":5126,
		"count":166,
		"byteOffset":24,
		"max":[1.0,
		1.0]
	},
	{
		"min":[0],
		"bufferView":16,
		"type":"SCALAR",
		"componentType":5123,
		"count":612,
		"byteOffset":0,
		"max":[165]
	},
	{
		"min":[-22.5,
		-2.5,
		-12.5],
		"bufferView":17,
		"type":"VEC3",
		"componentType":5126,
		"count":166,
		"byteOffset":0,
		"max":[22.5,
		2.5,
		12.5]
	},
	{
		"min":[-0.9832738637924194,
		-0.9865115880966187,
		-0.983273983001709],
		"bufferView":17,
		"type":"VEC3",
		"componentType":5126,
		"count":166,
		"byteOffset":12,
		"max":[0.9832738637924194,
		0.9865115880966187,
		0.9832740426063538]
	},
	{
		"min":[0.0,
		0.0],
		"bufferView":17,
		"type":"VEC2",
		"componentType":5126,
		"count":166,
		"byteOffset":24,
		"max":[1.0,
		1.0]
	},
	{
		"min":[0],
		"bufferView":18,
		"type":"SCALAR",
		"componentType":5123,
		"count":612,
		"byteOffset":0,
		"max":[165]
	},
	{
		"min":[-22.5,
		-2.5,
		-12.5],
		"bufferView":19,
		"type":"VEC3",
		"componentType":5126,
		"count":166,
		"byteOffset":0,
		"max":[22.5,
		2.5,
		12.5]
	},
	{
		"min":[-0.9832738637924194,
		-0.9865115880966187,
		-0.983273983001709],
		"bufferView":19,
		"type":"VEC3",
		"componentType":5126,
		"count":166,
		"byteOffset":12,
		"max":[0.9832738637924194,
		0.9865115880966187,
		0.9832740426063538]
	},
	{
		"min":[0.0,
		0.0],
		"bufferView":19,
		"type":"VEC2",
		"componentType":5126,
		"count":166,
		"byteOffset":24,
		"max":[1.0,
		1.0]
	},
	{
		"min":[0],
		"bufferView":20,
		"type":"SCALAR",
		"componentType":5123,
		"count":612,
		"byteOffset":0,
		"max":[165]
	},
	{
		"min":[-22.5,
		-2.5,
		-12.5],
		"bufferView":21,
		"type":"VEC3",
		"componentType":5126,
		"count":166,
		"byteOffset":0,
		"max":[22.5,
		2.5,
		12.5]
	},
	{
		"min":[-0.9832738637924194,
		-0.9865115880966187,
		-0.983273983001709],
		"bufferView":21,
		"type":"VEC3",
		"componentType":5126,
		"count":166,
		"byteOffset":12,
		"max":[0.9832738637924194,
		0.9865115880966187,
		0.9832740426063538]
	},
	{
		"min":[0.0,
		0.0],
		"bufferView":21,
		"type":"VEC2",
		"componentType":5126,
		"count":166,
		"byteOffset":24,
		"max":[1.0,
		1.0]
	},
	{
		"min":[0],
		"bufferView":22,
		"type":"SCALAR",
		"componentType":5123,
		"count":612,
		"byteOffset":0,
		"max":[165]
	},
	{
		"min":[-22.5,
		-2.5,
		-12.5],
		"bufferView":23,
		"type":"VEC3",
		"componentType":5126,
		"count":166,
		"byteOffset":0,
		"max":[22.5,
		2.5,
		12.5]
	},
	{
		"min":[-0.9832738637924194,
		-0.9865115880966187,
		-0.983273983001709],
		"bufferView":23,
		"type":"VEC3",
		"componentType":5126,
		"count":166,
		"byteOffset":12,
		"max":[0.9832738637924194,
		0.9865115880966187,
		0.9832740426063538]
	},
	{
		"min":[0.0,
		0.0],
		"bufferView":23,
		"type":"VEC2",
		"componentType":5126,
		"count":166,
		"byteOffset":24,
		"max":[1.0,
		1.0]
	},
	{
		"min":[0],
		"bufferView":24,
		"type":"SCALAR",
		"componentType":5123,
		"count":612,
		"byteOffset":0,
		"max":[165]
	},
	{
		"min":[-22.5,
		-2.5,
		-12.5],
		"bufferView":25,
		"type":"VEC3",
		"componentType":5126,
		"count":166,
		"byteOffset":0,
		"max":[22.5,
		2.5,
		12.5]
	},
	{
		"min":[-0.9832738637924194,
		-0.9865115880966187,
		-0.983273983001709],
		"bufferView":25,
		"type":"VEC3",
		"componentType":5126,
		"count":166,
		"byteOffset":12,
		"max":[0.9832738637924194,
		0.9865115880966187,
		0.9832740426063538]
	},
	{
		"min":[0.0,
		0.0],
		"bufferView":25,
		"type":"VEC2",
		"componentType":5126,
		"count":166,
		"byteOffset":24,
		"max":[1.0,
		1.0]
	},
	{
		"min":[0],
		"bufferView":26,
		"type":"SCALAR",
		"componentType":5123,
		"count":612,
		"byteOffset":0,
		"max":[165]
	},
	{
		"min":[-22.5,
		-2.5,
		-12.5],
		"bufferView":27,
		"type":"VEC3",
		"componentType":5126,
		"count":166,
		"byteOffset":0,
		"max":[22.5,
		2.5,
		12.5]
	},
	{
		"min":[-0.9832738637924194,
		-0.9865115880966187,
		-0.983273983001709],
		"bufferView":27,
		"type":"VEC3",
		"componentType":5126,
		"count":166,
		"byteOffset":12,
		"max":[0.9832738637924194,
		0.9865115880966187,
		0.9832740426063538]
	},
	{
		"min":[0.0,
		0.0],
		"bufferView":27,
		"type":"VEC2",
		"componentType":5126,
		"count":166,
		"byteOffset":24,
		"max":[1.0,
		1.0]
	},
	{
		"min":[0],
		"bufferView":28,
		"type":"SCALAR",
		"componentType":5123,
		"count":612,
		"byteOffset":0,
		"max":[165]
	},
	{
		"min":[-22.5,
		-2.5,
		-12.5],
		"bufferView":29,
		"type":"VEC3",
		"componentType":5126,
		"count":166,
		"byteOffset":0,
		"max":[22.5,
		2.5,
		12.5]
	},
	{
		"min":[-0.9832738637924194,
		-0.9865115880966187,
		-0.983273983001709],
		"bufferView":29,
		"type":"VEC3",
		"componentType":5126,
		"count":166,
		"byteOffset":12,
		"max":[0.9832738637924194,
		0.9865115880966187,
		0.9832740426063538]
	},
	{
		"min":[0.0,
		0.0],
		"bufferView":29,
		"type":"VEC2",
		"componentType":5126,
		"count":166,
		"byteOffset":24,
		"max":[1.0,
		1.0]
	},
	{
		"min":[0],
		"bufferView":30,
		"type":"SCALAR",
		"componentType":5123,
		"count":4956,
		"byteOffset":0,
		"max":[1035]
	},
	{
		"min":[-100.0,
		-9.64412784576416,
		-81.6169662475586],
		"bufferView":31,
		"type":"VEC3",
		"componentType":5126,
		"count":1036,
		"byteOffset":0,
		"max":[100.0,
		39.1930046081543,
		100.0]
	},
	{
		"min":[-1.0,
		-1.0,
		-0.993185818195343],
		"bufferView":31,
		"type":"VEC3",
		"componentType":5126,
		"count":1036,
		"byteOffset":12,
		"max":[1.0,
		1.0,
		1.0]
	},
	{
		"min":[0.0,
		0.0],
		"bufferView":31,
		"type":"VEC2",
		"componentType":5126,
		"count":1036,
		"byteOffset":24,
		"max":[1.0,
		1.0]
	}],
	"bufferViews":[{
		"buffer":0,
		"byteOffset":0,
		"byteLength":1224,
		"target":34963
	},
	{
		"buffer":0,
		"byteOffset":1224,
		"byteLength":5312,
		"target":34962,
		"byteStride":32
	},
	{
		"buffer":1,
		"byteOffset":0,
		"byteLength":1224,
		"target":34963
	},
	{
		"buffer":1,
		"byteOffset":1224,
		"byteLength":5312,
		"target":34962,
		"byteStride":32
	},
	{
		"buffer":2,
		"byteOffset":0,
		"byteLength":1224,
		"target":34963
	},
	{
		"buffer":2,
		"byteOffset":1224,
		"byteLength":5312,
		"target":34962,
		"byteStride":32
	},
	{
		"buffer":3,
		"byteOffset":0,
		"byteLength":1224,
		"target":34963
	},
	{
		"buffer":3,
		"byteOffset":1224,
		"byteLength":5312,
		"target":34962,
		"byteStride":32
	},
	{
		"buffer":4,
		"byteOffset":0,
		"byteLength":1224,
		"target":34963
	},
	{
		"buffer":4,
		"byteOffset":1224,
		"byteLength":6592,
		"target":34962,
		"byteStride":32
	},
	{
		"buffer":5,
		"byteOffset":0,
		"byteLength":1224,
		"target":34963
	},
	{
		"buffer":5,
		"byteOffset":1224,
		"byteLength":5312,
		"target":34962,
		"byteStride":32
	},
	{
		"buffer":6,
		"byteOffset":0,
		"byteLength":1224,
		"target":34963
	},
	{
		"buffer":6,
		"byteOffset":1224,
		"byteLength":5312,
		"target":34962,
		"byteStride":32
	},
	{
		"buffer":7,
		"byteOffset":0,
		"byteLength":1224,
		"target":34963
	},
	{
		"buffer":7,
		"byteOffset":1224,
		"byteLength":5312,
		"target":34962,
		"byteStride":32
	},
	{
		"buffer":8,
		"byteOffset":0,
		"byteLength":1224,
		"target":34963
	},
	{
		"buffer":8,
		"byteOffset":1224,
		"byteLength":5312,
		"target":34962,
		"byteStride":32
	},
	{
		"buffer":9,
		"byteOffset":0,
		"byteLength":1224,
		"target":34963
	},
	{
		"buffer":9,
		"byteOffset":1224,
		"byteLength":5312,
		"target":34962,
		"byteStride":32
	},
	{
		"buffer":10,
		"byteOffset":0,
		"byteLength":1224,
		"target":34963
	},
	{
		"buffer":10,
		"byteOffset":1224,
		"byteLength":5312,
		"target":34962,
		"byteStride":32
	},
	{
		"buffer":11,
		"byteOffset":0,
		"byteLength":1224,
		"target":34963
	},
	{
		"buffer":11,
		"byteOffset":1224,
		"byteLength":5312,
		"target":34962,
		"byteStride":32
	},
	{
		"buffer":12,
		"byteOffset":0,
		"byteLength":1224,
		"target":34963
	},
	{
		"buffer":12,
		"byteOffset":1224,
		"byteLength":5312,
		"target":34962,
		"byteStride":32
	},
	{
		"buffer":13,
		"byteOffset":0,
		"byteLength":1224,
		"target":34963
	},
	{
		"buffer":13,
		"byteOffset":1224,
		"byteLength":5312,
		"target":34962,
		"byteStride":32
	},
	{
		"buffer":14,
		"byteOffset":0,
		"byteLength":1224,
		"target":34963
	},
	{
		"buffer":14,
		"byteOffset":1224,
		"byteLength":5312,
		"target":34962,
		"byteStride":32
	},
	{
		"buffer":15,
		"byteOffset":0,
		"byteLength":9912,
		"target":34963
	},
	{
		"buffer":15,
		"byteOffset":9912,
		"byteLength":33152,
		"target":34962,
		"byteStride":32
	}],
	"materials":[{
		"pbrMetallicRoughness":{
			"baseColorFactor":[0.04313725490196079,
			0.04313725490196079,
			0.07058823529411765,
			1.0],
			"metallicFactor":0.0,
			"roughnessFactor":0.5
		},
		"emissiveFactor":[0.0,
		0.0,
		0.0],
		"alphaMode":"OPAQUE",
		"doubleSided":false,
		"name":"Dark 2"
	},
	{
		"pbrMetallicRoughness":{
			"baseColorFactor":[0.9294117647058824,
			0.403921568627451,
			0.0,
			1.0],
			"metallicFactor":0.0,
			"roughnessFactor":0.5
		},
		"emissiveFactor":[0.0,
		0.0,
		0.0],
		"alphaMode":"OPAQUE",
		"doubleSided":false,
		"name":"Orange 2"
	}],
	"buffers":[{
		"uri":"data:application/octet-stream;base64,",
		"byteLength":6536
	},
	{
		"uri":"data:application/octet-stream;base64,",
		"byteLength":6536
	},
	{
		"uri":"data:application/octet-stream;base64,",
		"byteLength":6536
	},
	{
		"uri":"data:application/octet-stream;base64,",
		"byteLength":6536
	},
	{
		"uri":"data:application/octet-stream;base64,",
		"byteLength":7816
	},
	{
		"uri":"data:application/octet-stream;base64,",
		"byteLength":6536
	},
	{
		"uri":"data:application/octet-stream;base64,",
		"byteLength":6536
	},
	{
		"uri":"data:application/octet-stream;base64,",
		"byteLength":6536
	},
	{
		"uri":"data:application/octet-stream;base64,",
		"byteLength":6536
	},
	{
		"uri":"data:application/octet-stream;base64,",
		"byteLength":6536
	},
	{
		"uri":"data:application/octet-stream;base64,",
		"byteLength":6536
	},
	{
		"uri":"data:application/octet-stream;base64,",
		"byteLength":6536
	},
	{
		"uri":"data:application/octet-stream;base64,",
		"byteLength":6536
	},
	{
		"uri":"data:application/octet-stream;base64,",
		"byteLength":6536
	},
	{
		"uri":"data:application/octet-stream;base64,",
		"byteLength":6536
	},
	{
		"uri":"data:application/octet-stream;base64,",
		"byteLength":43064
	}]
}