{
	"asset":{
		"generator":"Created using the official Cinema 4D glTF Exporter 1.000x284978",
		"version":"2.0"
	},
	"scenes":[{
		"nodes":[0,
		1]
	}],
	"nodes":[{
		"name":"Camera",
		"translation":[7264.14208984375,
		4914.9541015625,
		6084.17041015625],
		"rotation":[0.2206801325082779,
		-0.40498530864715578,
		-0.10138877481222153,
		-0.8814802765846252],
		"scale":[1.0,
		1.0,
		1.0],
		"camera":0
	},
	{
		"name":"Chain",
		"translation":[0.0,
		882.6488037109375,
		937.9519653320313],
		"rotation":[0.0,
		0.0,
		0.0,
		-1.0],
		"scale":[1.0,
		1.0,
		1.0],
		"children":[2,
		4]
	},
	{
		"name":"Sweep.1",
		"translation":[0.0,
		7.333309650421143,
		937.9519653320313],
		"rotation":[0.0,
		0.0,
		0.7071067690849304,
		-0.7071067690849304],
		"scale":[1.0,
		1.0,
		1.0],
		"children":[3]
	},
	{
		"name":"Sweep.1",
		"mesh":0
	},
	{
		"name":"Sweep",
		"translation":[0.0,
		-7.333309650421143,
		-937.9519653320313],
		"rotation":[0.0,
		0.0,
		0.0,
		-1.0],
		"scale":[1.0,
		1.0,
		1.0],
		"children":[5]
	},
	{
		"name":"Sweep",
		"mesh":1
	}],
	"meshes":[{
		"name":"Sweep.1",
		"primitives":[{
			"attributes":{
				"POSITION":1,
				"NORMAL":2,
				"TEXCOORD_0":3
			},
			"indices":0,
			"material":0
		}]
	},
	{
		"name":"Sweep",
		"primitives":[{
			"attributes":{
				"POSITION":5,
				"NORMAL":6,
				"TEXCOORD_0":7
			},
			"indices":4,
			"material":1
		}]
	}],
	"cameras":[{
		"type":"perspective",
		"perspective":{
			"znear":0.009999999776482582,
			"zfar":10000000000.0,
			"aspectRatio":1.7777777910232545,
			"yfov":0.5483348965644836
		}
	}],
	"accessors":[{
		"min":[0],
		"bufferView":0,
		"type":"SCALAR",
		"componentType":5123,
		"count":32832,
		"byteOffset":0,
		"max":[6159]
	},
	{
		"min":[-794.65673828125,
		-200.0,
		-1730.6578369140626],
		"bufferView":1,
		"type":"VEC3",
		"componentType":5126,
		"count":6160,
		"byteOffset":0,
		"max":[794.63720703125,
		200.0,
		1203.494140625]
	},
	{
		"min":[-0.9999667406082153,
		-1.0,
		-0.9999922513961792],
		"bufferView":1,
		"type":"VEC3",
		"componentType":5126,
		"count":6160,
		"byteOffset":12,
		"max":[0.9999670386314392,
		1.0,
		0.9999576807022095]
	},
	{
		"min":[0.0,
		0.0],
		"bufferView":1,
		"type":"VEC2",
		"componentType":5126,
		"count":6160,
		"byteOffset":24,
		"max":[1.0,
		1.0]
	},
	{
		"min":[0],
		"bufferView":2,
		"type":"SCALAR",
		"componentType":5123,
		"count":32832,
		"byteOffset":0,
		"max":[6159]
	},
	{
		"min":[-794.65673828125,
		-200.0,
		-1730.6578369140626],
		"bufferView":3,
		"type":"VEC3",
		"componentType":5126,
		"count":6160,
		"byteOffset":0,
		"max":[794.63720703125,
		200.0,
		1203.494140625]
	},
	{
		"min":[-0.9999667406082153,
		-1.0,
		-0.9999922513961792],
		"bufferView":3,
		"type":"VEC3",
		"componentType":5126,
		"count":6160,
		"byteOffset":12,
		"max":[0.9999670386314392,
		1.0,
		0.9999576807022095]
	},
	{
		"min":[0.0,
		0.0],
		"bufferView":3,
		"type":"VEC2",
		"componentType":5126,
		"count":6160,
		"byteOffset":24,
		"max":[1.0,
		1.0]
	}],
	"bufferViews":[{
		"buffer":0,
		"byteOffset":0,
		"byteLength":65664,
		"target":34963
	},
	{
		"buffer":0,
		"byteOffset":65664,
		"byteLength":197120,
		"target":34962,
		"byteStride":32
	},
	{
		"buffer":1,
		"byteOffset":0,
		"byteLength":65664,
		"target":34963
	},
	{
		"buffer":1,
		"byteOffset":65664,
		"byteLength":197120,
		"target":34962,
		"byteStride":32
	}],
	"materials":[{
		"pbrMetallicRoughness":{
			"baseColorFactor":[0.9294117647058824,
			0.403921568627451,
			0.0,
			1.0],
			"metallicFactor":0.0,
			"roughnessFactor":0.5
		},
		"emissiveFactor":[0.0,
		0.0,
		0.0],
		"alphaMode":"OPAQUE",
		"doubleSided":false,
		"name":"Orange 2"
	},
	{
		"pbrMetallicRoughness":{
			"baseColorFactor":[0.04313725490196079,
			0.04313725490196079,
			0.07058823529411765,
			1.0],
			"metallicFactor":0.0,
			"roughnessFactor":0.5
		},
		"emissiveFactor":[0.0,
		0.0,
		0.0],
		"alphaMode":"OPAQUE",
		"doubleSided":false,
		"name":"Dark 2"
	}],
	"buffers":[{
		"uri":"data:application/octet-stream;base64,",
		"byteLength":262784
	},
	{
		"uri":"data:application/octet-stream;base64,",
		"byteLength":262784
	}]
}