{
	"asset":{
		"version":"2.0",
		"generator":"Created using the official Cinema 4D glTF Exporter. Previous Build: 1.000x275765."
	},
	"scenes":[{
		"nodes":[0]
	}],
	"nodes":[{
		"translation":[-109.159,
		214.018,
		-0.096],
		"name":"Null",
		"rotation":[0,
		0,
		0.259,
		-0.966],
		"scale":[1,
		1,
		-1],
		"children":[1,
		4,
		7]
	},
	{
		"translation":[-33.325,
		-9.982,
		50.514],
		"name":"Extrude.1",
		"rotation":[-0.707,
		-0.707,
		0,
		0],
		"scale":[1,
		1,
		1],
		"mesh":0,
		"children":[2,
		3]
	},
	{
		"translation":[-86.708,
		-2.677,
		0],
		"name":"Cap 1",
		"rotation":[0,
		0,
		0,
		-1],
		"scale":[1,
		1,
		1],
		"mesh":1
	},
	{
		"translation":[-86.708,
		-2.677,
		0],
		"name":"Cap 2",
		"rotation":[0,
		0,
		0,
		-1],
		"scale":[1,
		1,
		1],
		"mesh":2
	},
	{
		"translation":[-33.325,
		-9.982,
		-50.419],
		"name":"Extrude",
		"rotation":[0,
		0,
		0.707,
		0.707],
		"scale":[1,
		1,
		1],
		"mesh":3,
		"children":[5,
		6]
	},
	{
		"translation":[-86.708,
		-2.677,
		0],
		"name":"Cap 1",
		"rotation":[0,
		0,
		0,
		-1],
		"scale":[1,
		1,
		1],
		"mesh":4
	},
	{
		"translation":[-86.708,
		-2.677,
		0],
		"name":"Cap 2",
		"rotation":[0,
		0,
		0,
		-1],
		"scale":[1,
		1,
		1],
		"mesh":5
	},
	{
		"translation":[66.649,
		19.964,
		-0.096],
		"name":"Boole",
		"rotation":[0,
		0,
		0,
		-1],
		"scale":[1,
		1,
		1],
		"mesh":6
	}],
	"meshes":[{
		"primitives":[{
			"attributes":{
				"POSITION":1,
				"NORMAL":2,
				"TEXCOORD_0":3
			},
			"indices":0,
			"material":0
		}]
	},
	{
		"primitives":[{
			"attributes":{
				"POSITION":5,
				"NORMAL":6,
				"TEXCOORD_0":7
			},
			"indices":4,
			"material":1
		}]
	},
	{
		"primitives":[{
			"attributes":{
				"POSITION":9,
				"NORMAL":10,
				"TEXCOORD_0":11
			},
			"indices":8,
			"material":2
		}]
	},
	{
		"primitives":[{
			"attributes":{
				"POSITION":13,
				"NORMAL":14,
				"TEXCOORD_0":15
			},
			"indices":12,
			"material":3
		}]
	},
	{
		"primitives":[{
			"attributes":{
				"POSITION":17,
				"NORMAL":18,
				"TEXCOORD_0":19
			},
			"indices":16,
			"material":4
		}]
	},
	{
		"primitives":[{
			"attributes":{
				"POSITION":21,
				"NORMAL":22,
				"TEXCOORD_0":23
			},
			"indices":20,
			"material":5
		}]
	},
	{
		"primitives":[{
			"attributes":{
				"POSITION":25,
				"NORMAL":26,
				"TEXCOORD_0":27
			},
			"indices":24,
			"material":6
		}]
	}],
	"accessors":[{
		"bufferView":0,
		"max":[1187],
		"type":"SCALAR",
		"componentType":5123,
		"count":1560,
		"byteOffset":0,
		"min":[0]
	},
	{
		"bufferView":1,
		"max":[149.167,
		14.323,
		20],
		"type":"VEC3",
		"componentType":5126,
		"count":1188,
		"byteOffset":0,
		"min":[-86.708,
		-0.552,
		0]
	},
	{
		"bufferView":1,
		"max":[1,
		1,
		0],
		"type":"VEC3",
		"componentType":5126,
		"count":1188,
		"byteOffset":12,
		"min":[-1,
		-1,
		0]
	},
	{
		"bufferView":1,
		"max":[1,
		1],
		"type":"VEC2",
		"componentType":5126,
		"count":1188,
		"byteOffset":24,
		"min":[0,
		0]
	},
	{
		"bufferView":2,
		"max":[259],
		"type":"SCALAR",
		"componentType":5123,
		"count":744,
		"byteOffset":0,
		"min":[0]
	},
	{
		"bufferView":3,
		"max":[235.875,
		17,
		0],
		"type":"VEC3",
		"componentType":5126,
		"count":260,
		"byteOffset":0,
		"min":[0,
		2.125,
		0]
	},
	{
		"bufferView":3,
		"max":[0,
		0,
		-1],
		"type":"VEC3",
		"componentType":5126,
		"count":260,
		"byteOffset":12,
		"min":[0,
		0,
		-1]
	},
	{
		"bufferView":3,
		"max":[1,
		0.063],
		"type":"VEC2",
		"componentType":5126,
		"count":260,
		"byteOffset":24,
		"min":[0,
		0]
	},
	{
		"bufferView":4,
		"max":[259],
		"type":"SCALAR",
		"componentType":5123,
		"count":744,
		"byteOffset":0,
		"min":[0]
	},
	{
		"bufferView":5,
		"max":[235.875,
		17,
		20],
		"type":"VEC3",
		"componentType":5126,
		"count":260,
		"byteOffset":0,
		"min":[0,
		2.125,
		20]
	},
	{
		"bufferView":5,
		"max":[0,
		0,
		1],
		"type":"VEC3",
		"componentType":5126,
		"count":260,
		"byteOffset":12,
		"min":[0,
		0,
		1]
	},
	{
		"bufferView":5,
		"max":[1,
		0.063],
		"type":"VEC2",
		"componentType":5126,
		"count":260,
		"byteOffset":24,
		"min":[0,
		0]
	},
	{
		"bufferView":6,
		"max":[1187],
		"type":"SCALAR",
		"componentType":5123,
		"count":1560,
		"byteOffset":0,
		"min":[0]
	},
	{
		"bufferView":7,
		"max":[149.167,
		14.323,
		20],
		"type":"VEC3",
		"componentType":5126,
		"count":1188,
		"byteOffset":0,
		"min":[-86.708,
		-0.552,
		0]
	},
	{
		"bufferView":7,
		"max":[1,
		1,
		0],
		"type":"VEC3",
		"componentType":5126,
		"count":1188,
		"byteOffset":12,
		"min":[-1,
		-1,
		0]
	},
	{
		"bufferView":7,
		"max":[1,
		1],
		"type":"VEC2",
		"componentType":5126,
		"count":1188,
		"byteOffset":24,
		"min":[0,
		0]
	},
	{
		"bufferView":8,
		"max":[259],
		"type":"SCALAR",
		"componentType":5123,
		"count":744,
		"byteOffset":0,
		"min":[0]
	},
	{
		"bufferView":9,
		"max":[235.875,
		17,
		0],
		"type":"VEC3",
		"componentType":5126,
		"count":260,
		"byteOffset":0,
		"min":[0,
		2.125,
		0]
	},
	{
		"bufferView":9,
		"max":[0,
		0,
		-1],
		"type":"VEC3",
		"componentType":5126,
		"count":260,
		"byteOffset":12,
		"min":[0,
		0,
		-1]
	},
	{
		"bufferView":9,
		"max":[1,
		0.063],
		"type":"VEC2",
		"componentType":5126,
		"count":260,
		"byteOffset":24,
		"min":[0,
		0]
	},
	{
		"bufferView":10,
		"max":[259],
		"type":"SCALAR",
		"componentType":5123,
		"count":744,
		"byteOffset":0,
		"min":[0]
	},
	{
		"bufferView":11,
		"max":[235.875,
		17,
		20],
		"type":"VEC3",
		"componentType":5126,
		"count":260,
		"byteOffset":0,
		"min":[0,
		2.125,
		20]
	},
	{
		"bufferView":11,
		"max":[0,
		0,
		1],
		"type":"VEC3",
		"componentType":5126,
		"count":260,
		"byteOffset":12,
		"min":[0,
		0,
		1]
	},
	{
		"bufferView":11,
		"max":[1,
		0.063],
		"type":"VEC2",
		"componentType":5126,
		"count":260,
		"byteOffset":24,
		"min":[0,
		0]
	},
	{
		"bufferView":12,
		"max":[717],
		"type":"SCALAR",
		"componentType":5123,
		"count":2157,
		"byteOffset":0,
		"min":[0]
	},
	{
		"bufferView":13,
		"max":[150,
		150,
		50],
		"type":"VEC3",
		"componentType":5126,
		"count":718,
		"byteOffset":0,
		"min":[-150,
		-150,
		-50]
	},
	{
		"bufferView":13,
		"max":[1,
		1,
		1],
		"type":"VEC3",
		"componentType":5126,
		"count":718,
		"byteOffset":12,
		"min":[-0.999,
		-1,
		-1]
	},
	{
		"bufferView":13,
		"max":[1,
		1],
		"type":"VEC2",
		"componentType":5126,
		"count":718,
		"byteOffset":24,
		"min":[0,
		0]
	}],
	"bufferViews":[{
		"buffer":0,
		"byteOffset":0,
		"byteLength":3120,
		"target":34963
	},
	{
		"buffer":0,
		"byteOffset":3120,
		"byteLength":38016,
		"target":34962,
		"byteStride":32
	},
	{
		"buffer":1,
		"byteOffset":0,
		"byteLength":1488,
		"target":34963
	},
	{
		"buffer":1,
		"byteOffset":1488,
		"byteLength":8320,
		"target":34962,
		"byteStride":32
	},
	{
		"buffer":2,
		"byteOffset":0,
		"byteLength":1488,
		"target":34963
	},
	{
		"buffer":2,
		"byteOffset":1488,
		"byteLength":8320,
		"target":34962,
		"byteStride":32
	},
	{
		"buffer":3,
		"byteOffset":0,
		"byteLength":3120,
		"target":34963
	},
	{
		"buffer":3,
		"byteOffset":3120,
		"byteLength":38016,
		"target":34962,
		"byteStride":32
	},
	{
		"buffer":4,
		"byteOffset":0,
		"byteLength":1488,
		"target":34963
	},
	{
		"buffer":4,
		"byteOffset":1488,
		"byteLength":8320,
		"target":34962,
		"byteStride":32
	},
	{
		"buffer":5,
		"byteOffset":0,
		"byteLength":1488,
		"target":34963
	},
	{
		"buffer":5,
		"byteOffset":1488,
		"byteLength":8320,
		"target":34962,
		"byteStride":32
	},
	{
		"buffer":6,
		"byteOffset":0,
		"byteLength":4314,
		"target":34963
	},
	{
		"buffer":6,
		"byteOffset":4316,
		"byteLength":22976,
		"target":34962,
		"byteStride":32
	}],
	"buffers":[{
		"uri":"data:application/octet-stream;base64,",
		"byteLength":41136
	},
	{
		"uri":"data:application/octet-stream;base64,",
		"byteLength":9808
	},
	{
		"uri":"data:application/octet-stream;base64,",
		"byteLength":9808
	},
	{
		"uri":"data:application/octet-stream;base64,",
		"byteLength":41136
	},
	{
		"uri":"data:application/octet-stream;base64,",
		"byteLength":9808
	},
	{
		"uri":"data:application/octet-stream;base64,",
		"byteLength":9808
	},
	{
		"uri":"data:application/octet-stream;base64,",
		"byteLength":27292
	}],
	"materials":[{
		"pbrMetallicRoughness":{
			"baseColorFactor":[0,
			0,
			0,
			1],
			"metallicFactor":0,
			"roughnessFactor":0.5
		},
		"emissiveFactor":[0,
		0,
		0],
		"alphaMode":"OPAQUE",
		"doubleSided":false
	},
	{
		"pbrMetallicRoughness":{
			"baseColorFactor":[0,
			0,
			0,
			1],
			"metallicFactor":0,
			"roughnessFactor":0.5
		},
		"emissiveFactor":[0,
		0,
		0],
		"alphaMode":"OPAQUE",
		"doubleSided":false
	},
	{
		"pbrMetallicRoughness":{
			"baseColorFactor":[0,
			0,
			0,
			1],
			"metallicFactor":0,
			"roughnessFactor":0.5
		},
		"emissiveFactor":[0,
		0,
		0],
		"alphaMode":"OPAQUE",
		"doubleSided":false
	},
	{
		"pbrMetallicRoughness":{
			"baseColorFactor":[0,
			0,
			0,
			1],
			"metallicFactor":0,
			"roughnessFactor":0.5
		},
		"emissiveFactor":[0,
		0,
		0],
		"alphaMode":"OPAQUE",
		"doubleSided":false
	},
	{
		"pbrMetallicRoughness":{
			"baseColorFactor":[0,
			0,
			0,
			1],
			"metallicFactor":0,
			"roughnessFactor":0.5
		},
		"emissiveFactor":[0,
		0,
		0],
		"alphaMode":"OPAQUE",
		"doubleSided":false
	},
	{
		"pbrMetallicRoughness":{
			"baseColorFactor":[0,
			0,
			0,
			1],
			"metallicFactor":0,
			"roughnessFactor":0.5
		},
		"emissiveFactor":[0,
		0,
		0],
		"alphaMode":"OPAQUE",
		"doubleSided":false
	},
	{
		"pbrMetallicRoughness":{
			"baseColorFactor":[1,
			0.387,
			0.2,
			1],
			"metallicFactor":0.1,
			"roughnessFactor":0.8
		},
		"emissiveFactor":[0,
		0,
		0],
		"alphaMode":"OPAQUE",
		"doubleSided":false
	}]
}