{
	"asset":{
		"generator":"Created using the official Cinema 4D glTF Exporter 1.000x284978",
		"version":"2.0"
	},
	"scenes":[{
		"nodes":[0,
		5,
		6]
	}],
	"nodes":[{
		"name":"Boole",
		"children":[1,
		3]
	},
	{
		"name":"Loft",
		"children":[2]
	},
	{
		"name":"Loft",
		"mesh":0
	},
	{
		"name":"Loft.1",
		"translation":[0.0,
		0.0,
		17.57267951965332],
		"rotation":[0.0,
		0.0,
		0.0,
		-1.0],
		"scale":[1.0,
		1.0,
		1.0],
		"children":[4]
	},
	{
		"name":"Loft.1",
		"mesh":1
	},
	{
		"name":"Camera",
		"translation":[935.4256591796875,
		576.4404907226563,
		690.5416259765625],
		"rotation":[0.10094001889228821,
		-0.3551531136035919,
		-0.038608089089393619,
		-0.9285401701927185],
		"scale":[1.0,
		1.0,
		1.0],
		"camera":0
	},
	{
		"name":"Rupor",
		"translation":[0.0,
		212.54307556152345,
		-226.3658447265625],
		"rotation":[0.0,
		0.0,
		0.0,
		-1.0],
		"scale":[1.0,
		1.0,
		1.0],
		"children":[7,
		9,
		11]
	},
	{
		"name":"Handle",
		"translation":[0.0,
		-100.47991943359375,
		-218.5540771484375],
		"rotation":[0.0,
		0.0,
		0.0,
		-1.0],
		"scale":[1.0,
		1.0,
		1.0],
		"children":[8]
	},
	{
		"name":"Handle",
		"mesh":2
	},
	{
		"name":"Loft",
		"translation":[0.0,
		-81.47523498535156,
		268.65863037109377],
		"rotation":[0.0,
		0.0,
		0.0,
		-1.0],
		"scale":[1.0,
		1.0,
		1.0],
		"children":[10]
	},
	{
		"name":"Loft",
		"mesh":3
	},
	{
		"name":"Extrude back cap",
		"translation":[0.0,
		90.22531127929688,
		-276.47039794921877],
		"rotation":[0.0,
		0.0,
		0.0,
		-1.0],
		"scale":[1.0,
		1.0,
		1.0],
		"children":[12]
	},
	{
		"name":"Extrude back cap",
		"mesh":4
	}],
	"meshes":[{
		"name":"Loft",
		"primitives":[{
			"attributes":{
				"POSITION":1,
				"NORMAL":2,
				"TEXCOORD_0":3
			},
			"indices":0,
			"material":0
		}]
	},
	{
		"name":"Loft.1",
		"primitives":[{
			"attributes":{
				"POSITION":5,
				"NORMAL":6,
				"TEXCOORD_0":7
			},
			"indices":4,
			"material":0
		}]
	},
	{
		"name":"Handle",
		"primitives":[{
			"attributes":{
				"POSITION":9,
				"NORMAL":10,
				"TEXCOORD_0":11
			},
			"indices":8,
			"material":0
		}]
	},
	{
		"name":"Loft",
		"primitives":[{
			"attributes":{
				"POSITION":13,
				"NORMAL":14,
				"TEXCOORD_0":15
			},
			"indices":12,
			"material":1
		}]
	},
	{
		"name":"Extrude back cap",
		"primitives":[{
			"attributes":{
				"POSITION":17,
				"NORMAL":18,
				"TEXCOORD_0":19
			},
			"indices":16,
			"material":1
		}]
	}],
	"cameras":[{
		"type":"perspective",
		"perspective":{
			"znear":0.009999999776482582,
			"zfar":10000000000.0,
			"aspectRatio":1.7777777910232545,
			"yfov":0.5483348965644836
		}
	}],
	"accessors":[{
		"min":[0],
		"bufferView":0,
		"type":"SCALAR",
		"componentType":5123,
		"count":558,
		"byteOffset":0,
		"max":[152]
	},
	{
		"min":[-194.45223999023438,
		131.06784057617188,
		-494.4424743652344],
		"bufferView":1,
		"type":"VEC3",
		"componentType":5126,
		"count":153,
		"byteOffset":0,
		"max":[194.45223999023438,
		477.4779968261719,
		3.552713678800501e-15]
	},
	{
		"min":[-0.9886206984519959,
		-0.9894725680351257,
		-1.0],
		"bufferView":1,
		"type":"VEC3",
		"componentType":5126,
		"count":153,
		"byteOffset":12,
		"max":[0.9886206984519959,
		0.989472508430481,
		1.0]
	},
	{
		"min":[0.0,
		0.0],
		"bufferView":1,
		"type":"VEC2",
		"componentType":5126,
		"count":153,
		"byteOffset":24,
		"max":[1.0,
		1.0]
	},
	{
		"min":[0],
		"bufferView":2,
		"type":"SCALAR",
		"componentType":5123,
		"count":462,
		"byteOffset":0,
		"max":[124]
	},
	{
		"min":[-176.41090393066407,
		147.08079528808595,
		-454.4419860839844],
		"bufferView":3,
		"type":"VEC3",
		"componentType":5126,
		"count":125,
		"byteOffset":0,
		"max":[176.41090393066407,
		461.4650573730469,
		-17.57267951965332]
	},
	{
		"min":[-0.9887645244598389,
		-0.9935815930366516,
		0.11311120539903641],
		"bufferView":3,
		"type":"VEC3",
		"componentType":5126,
		"count":125,
		"byteOffset":12,
		"max":[0.9887645244598389,
		0.9935816526412964,
		1.0]
	},
	{
		"min":[0.0,
		0.0],
		"bufferView":3,
		"type":"VEC2",
		"componentType":5126,
		"count":125,
		"byteOffset":24,
		"max":[1.0,
		1.0]
	},
	{
		"min":[0],
		"bufferView":4,
		"type":"SCALAR",
		"componentType":5123,
		"count":852,
		"byteOffset":0,
		"max":[303]
	},
	{
		"min":[-20.0,
		-100.0,
		-50.0],
		"bufferView":5,
		"type":"VEC3",
		"componentType":5126,
		"count":304,
		"byteOffset":0,
		"max":[0.0,
		100.0,
		50.0]
	},
	{
		"min":[-1.0,
		-1.0,
		-0.998836100101471],
		"bufferView":5,
		"type":"VEC3",
		"componentType":5126,
		"count":304,
		"byteOffset":12,
		"max":[1.0,
		1.0,
		1.0]
	},
	{
		"min":[0.0,
		0.0],
		"bufferView":5,
		"type":"VEC2",
		"componentType":5126,
		"count":304,
		"byteOffset":24,
		"max":[1.0,
		1.0]
	},
	{
		"min":[0],
		"bufferView":6,
		"type":"SCALAR",
		"componentType":5123,
		"count":468,
		"byteOffset":0,
		"max":[116]
	},
	{
		"min":[-98.15074920654297,
		83.03025817871094,
		-539.8060302734375],
		"bufferView":7,
		"type":"VEC3",
		"componentType":5126,
		"count":117,
		"byteOffset":0,
		"max":[98.15074920654297,
		256.2353210449219,
		0.0]
	},
	{
		"min":[-0.9912189841270447,
		-0.9914451241493225,
		-1.0],
		"bufferView":7,
		"type":"VEC3",
		"componentType":5126,
		"count":117,
		"byteOffset":12,
		"max":[0.9912189841270447,
		0.9914451241493225,
		1.0]
	},
	{
		"min":[0.0,
		0.0],
		"bufferView":7,
		"type":"VEC2",
		"componentType":5126,
		"count":117,
		"byteOffset":24,
		"max":[1.0,
		1.0]
	},
	{
		"min":[0],
		"bufferView":8,
		"type":"SCALAR",
		"componentType":5123,
		"count":780,
		"byteOffset":0,
		"max":[287]
	},
	{
		"min":[-129.48974609375,
		-116.04740142822266,
		-50.0],
		"bufferView":9,
		"type":"VEC3",
		"componentType":5126,
		"count":288,
		"byteOffset":0,
		"max":[129.48974609375,
		116.04740142822266,
		0.0]
	},
	{
		"min":[-0.9998365640640259,
		-1.0,
		-1.0],
		"bufferView":9,
		"type":"VEC3",
		"componentType":5126,
		"count":288,
		"byteOffset":12,
		"max":[0.9998365640640259,
		1.0,
		1.0]
	},
	{
		"min":[0.0,
		0.0],
		"bufferView":9,
		"type":"VEC2",
		"componentType":5126,
		"count":288,
		"byteOffset":24,
		"max":[1.0,
		1.0]
	}],
	"bufferViews":[{
		"buffer":0,
		"byteOffset":0,
		"byteLength":1116,
		"target":34963
	},
	{
		"buffer":0,
		"byteOffset":1116,
		"byteLength":4896,
		"target":34962,
		"byteStride":32
	},
	{
		"buffer":1,
		"byteOffset":0,
		"byteLength":924,
		"target":34963
	},
	{
		"buffer":1,
		"byteOffset":924,
		"byteLength":4000,
		"target":34962,
		"byteStride":32
	},
	{
		"buffer":2,
		"byteOffset":0,
		"byteLength":1704,
		"target":34963
	},
	{
		"buffer":2,
		"byteOffset":1704,
		"byteLength":9728,
		"target":34962,
		"byteStride":32
	},
	{
		"buffer":3,
		"byteOffset":0,
		"byteLength":936,
		"target":34963
	},
	{
		"buffer":3,
		"byteOffset":936,
		"byteLength":3744,
		"target":34962,
		"byteStride":32
	},
	{
		"buffer":4,
		"byteOffset":0,
		"byteLength":1560,
		"target":34963
	},
	{
		"buffer":4,
		"byteOffset":1560,
		"byteLength":9216,
		"target":34962,
		"byteStride":32
	}],
	"materials":[{
		"pbrMetallicRoughness":{
			"baseColorFactor":[0.04313725490196079,
			0.04313725490196079,
			0.07058823529411765,
			1.0],
			"metallicFactor":0.0,
			"roughnessFactor":0.5
		},
		"emissiveFactor":[0.0,
		0.0,
		0.0],
		"alphaMode":"OPAQUE",
		"doubleSided":false,
		"name":"Dark 2"
	},
	{
		"pbrMetallicRoughness":{
			"baseColorFactor":[0.9294117647058824,
			0.403921568627451,
			0.0,
			1.0],
			"metallicFactor":0.0,
			"roughnessFactor":0.5
		},
		"emissiveFactor":[0.0,
		0.0,
		0.0],
		"alphaMode":"OPAQUE",
		"doubleSided":false,
		"name":"Orange 2"
	}],
	"buffers":[{
		"uri":"data:application/octet-stream;base64,",
		"byteLength":6012
	},
	{
		"uri":"data:application/octet-stream;base64,",
		"byteLength":4924
	},
	{
		"uri":"data:application/octet-stream;base64,",
		"byteLength":11432
	},
	{
		"uri":"data:application/octet-stream;base64,",
		"byteLength":4680
	},
	{
		"uri":"data:application/octet-stream;base64,",
		"byteLength":10776
	}]
}