{
	"asset":{
		"generator":"Created using the official Cinema 4D glTF Exporter 1.000x284978",
		"version":"2.0"
	},
	"scenes":[{
		"nodes":[0,
		2,
		3,
		7]
	}],
	"nodes":[{
		"name":"Sweep",
		"translation":[0.0,
		163.8969268798828,
		0.0],
		"rotation":[0.0,
		0.0,
		0.0,
		-1.0],
		"scale":[1.0,
		1.0,
		1.0],
		"children":[1]
	},
	{
		"name":"Sweep",
		"mesh":0
	},
	{
		"name":"Cube",
		"translation":[0.0,
		91.93767547607422,
		11.317444801330567],
		"rotation":[0.0,
		0.0,
		0.0,
		-1.0],
		"scale":[1.0,
		1.0,
		1.0],
		"mesh":1
	},
	{
		"name":"Boole",
		"children":[4,
		5]
	},
	{
		"name":"Cube",
		"translation":[0.0,
		100.0,
		0.0],
		"rotation":[0.0,
		0.0,
		0.0,
		-1.0],
		"scale":[1.0,
		1.0,
		1.0],
		"mesh":2
	},
	{
		"name":"Sweep",
		"translation":[0.05881933495402336,
		91.49325561523438,
		17.60233497619629],
		"rotation":[0.0,
		0.0,
		0.0,
		-1.0],
		"scale":[1.0,
		1.0,
		1.0],
		"children":[6]
	},
	{
		"name":"Sweep",
		"mesh":3
	},
	{
		"name":"Camera",
		"translation":[180.90232849121095,
		291.8880920410156,
		251.00274658203126],
		"rotation":[0.26325854659080508,
		-0.2781743109226227,
		-0.07957237958908081,
		-0.9203163981437683],
		"scale":[1.0,
		1.0,
		1.0],
		"camera":0
	}],
	"meshes":[{
		"name":"Sweep",
		"primitives":[{
			"attributes":{
				"POSITION":1,
				"NORMAL":2,
				"TEXCOORD_0":3
			},
			"indices":0,
			"material":0
		}]
	},
	{
		"name":"Cube",
		"primitives":[{
			"attributes":{
				"POSITION":5,
				"NORMAL":6,
				"TEXCOORD_0":7
			},
			"indices":4,
			"material":0
		}]
	},
	{
		"name":"Cube",
		"primitives":[{
			"attributes":{
				"POSITION":9,
				"NORMAL":10,
				"TEXCOORD_0":11
			},
			"indices":8,
			"material":1
		}]
	},
	{
		"name":"Sweep",
		"primitives":[{
			"attributes":{
				"POSITION":13,
				"NORMAL":14,
				"TEXCOORD_0":15
			},
			"indices":12,
			"material":1
		}]
	}],
	"cameras":[{
		"type":"perspective",
		"perspective":{
			"znear":0.009999999776482582,
			"zfar":10000000000.0,
			"aspectRatio":1.7777777910232545,
			"yfov":0.5483348965644836
		}
	}],
	"accessors":[{
		"min":[0],
		"bufferView":0,
		"type":"SCALAR",
		"componentType":5123,
		"count":15108,
		"byteOffset":0,
		"max":[3147]
	},
	{
		"min":[-34.87525177001953,
		0.7886186242103577,
		-2.5],
		"bufferView":1,
		"type":"VEC3",
		"componentType":5126,
		"count":3148,
		"byteOffset":0,
		"max":[35.113895416259769,
		22.831392288208009,
		2.5]
	},
	{
		"min":[-0.9987932443618774,
		-0.9999573826789856,
		-1.0],
		"bufferView":1,
		"type":"VEC3",
		"componentType":5126,
		"count":3148,
		"byteOffset":12,
		"max":[0.9988085627555847,
		0.9987778663635254,
		1.0]
	},
	{
		"min":[0.0,
		0.0],
		"bufferView":1,
		"type":"VEC2",
		"componentType":5126,
		"count":3148,
		"byteOffset":24,
		"max":[1.0,
		1.0]
	},
	{
		"min":[0],
		"bufferView":2,
		"type":"SCALAR",
		"componentType":5123,
		"count":612,
		"byteOffset":0,
		"max":[165]
	},
	{
		"min":[-10.0,
		-10.0,
		-10.0],
		"bufferView":3,
		"type":"VEC3",
		"componentType":5126,
		"count":166,
		"byteOffset":0,
		"max":[10.0,
		10.0,
		10.0]
	},
	{
		"min":[-0.983273983001709,
		-0.9865115880966187,
		-0.983273983001709],
		"bufferView":3,
		"type":"VEC3",
		"componentType":5126,
		"count":166,
		"byteOffset":12,
		"max":[0.983273983001709,
		0.9865115880966187,
		0.983273983001709]
	},
	{
		"min":[0.0,
		0.0],
		"bufferView":3,
		"type":"VEC2",
		"componentType":5126,
		"count":166,
		"byteOffset":24,
		"max":[1.0,
		1.0]
	},
	{
		"min":[0],
		"bufferView":4,
		"type":"SCALAR",
		"componentType":5123,
		"count":1578,
		"byteOffset":0,
		"max":[375]
	},
	{
		"min":[-100.0,
		-65.0,
		-17.5],
		"bufferView":5,
		"type":"VEC3",
		"componentType":5126,
		"count":376,
		"byteOffset":0,
		"max":[100.0,
		65.0,
		17.5]
	},
	{
		"min":[-1.0,
		-0.994387149810791,
		-0.9938870072364807],
		"bufferView":5,
		"type":"VEC3",
		"componentType":5126,
		"count":376,
		"byteOffset":12,
		"max":[0.9938870072364807,
		0.994387149810791,
		1.0]
	},
	{
		"min":[0.0,
		0.0],
		"bufferView":5,
		"type":"VEC2",
		"componentType":5126,
		"count":376,
		"byteOffset":24,
		"max":[1.0,
		1.0]
	},
	{
		"min":[0],
		"bufferView":6,
		"type":"SCALAR",
		"componentType":5123,
		"count":150,
		"byteOffset":0,
		"max":[73]
	},
	{
		"min":[-100.05882263183594,
		-1.94927978515625,
		-2.5],
		"bufferView":7,
		"type":"VEC3",
		"componentType":5126,
		"count":74,
		"byteOffset":0,
		"max":[99.68069458007813,
		26.587608337402345,
		-0.10233484208583832]
	},
	{
		"min":[-1.0,
		-1.0,
		-0.000008609606993559283],
		"bufferView":7,
		"type":"VEC3",
		"componentType":5126,
		"count":74,
		"byteOffset":12,
		"max":[1.0,
		1.0,
		1.0]
	},
	{
		"min":[3.395627095476028e-12,
		0.0023549888283014299],
		"bufferView":7,
		"type":"VEC2",
		"componentType":5126,
		"count":74,
		"byteOffset":24,
		"max":[1.0,
		1.0]
	}],
	"bufferViews":[{
		"buffer":0,
		"byteOffset":0,
		"byteLength":30216,
		"target":34963
	},
	{
		"buffer":0,
		"byteOffset":30216,
		"byteLength":100736,
		"target":34962,
		"byteStride":32
	},
	{
		"buffer":1,
		"byteOffset":0,
		"byteLength":1224,
		"target":34963
	},
	{
		"buffer":1,
		"byteOffset":1224,
		"byteLength":5312,
		"target":34962,
		"byteStride":32
	},
	{
		"buffer":2,
		"byteOffset":0,
		"byteLength":3156,
		"target":34963
	},
	{
		"buffer":2,
		"byteOffset":3156,
		"byteLength":12032,
		"target":34962,
		"byteStride":32
	},
	{
		"buffer":3,
		"byteOffset":0,
		"byteLength":300,
		"target":34963
	},
	{
		"buffer":3,
		"byteOffset":300,
		"byteLength":2368,
		"target":34962,
		"byteStride":32
	}],
	"materials":[{
		"pbrMetallicRoughness":{
			"baseColorFactor":[0.9294117647058824,
			0.403921568627451,
			0.0,
			1.0],
			"metallicFactor":0.0,
			"roughnessFactor":0.5
		},
		"emissiveFactor":[0.0,
		0.0,
		0.0],
		"alphaMode":"OPAQUE",
		"doubleSided":false,
		"name":"Orange 2"
	},
	{
		"pbrMetallicRoughness":{
			"baseColorFactor":[0.04313725490196079,
			0.04313725490196079,
			0.07058823529411765,
			1.0],
			"metallicFactor":0.0,
			"roughnessFactor":0.5
		},
		"emissiveFactor":[0.0,
		0.0,
		0.0],
		"alphaMode":"OPAQUE",
		"doubleSided":false,
		"name":"Dark 2"
	}],
	"buffers":[{
		"uri":"data:application/octet-stream;base64,",
		"byteLength":130952
	},
	{
		"uri":"data:application/octet-stream;base64,",
		"byteLength":6536
	},
	{
		"uri":"data:application/octet-stream;base64,",
		"byteLength":15188
	},
	{
		"uri":"data:application/octet-stream;base64,",
		"byteLength":2668
	}]
}