{
	"asset":{
		"generator":"Created using the official Cinema 4D glTF Exporter 1.000x284978",
		"version":"2.0"
	},
	"scenes":[{
		"nodes":[0,
		1]
	}],
	"nodes":[{
		"name":"Camera",
		"translation":[1565.029541015625,
		929.35546875,
		1515.9058837890626],
		"rotation":[0.138185515999794,
		-0.3461422920227051,
		-0.051625706255435947,
		-0.9265123009681702],
		"scale":[1.0,
		1.0,
		1.0],
		"camera":0
	},
	{
		"name":"Symmetry",
		"translation":[0.0,
		169.3404998779297,
		0.0],
		"rotation":[0.0,
		0.0,
		0.0,
		-1.0],
		"scale":[1.0,
		1.0,
		1.0],
		"children":[2]
	},
	{
		"name":"Null",
		"children":[3,
		5,
		8]
	},
	{
		"name":"Glass",
		"translation":[0.0,
		0.0,
		21.20003318786621],
		"rotation":[0.0,
		0.0,
		0.0,
		-1.0],
		"scale":[1.0,
		1.0,
		1.0],
		"children":[4]
	},
	{
		"name":"Glass",
		"mesh":0
	},
	{
		"name":"Boole Ochko",
		"children":[6,
		7]
	},
	{
		"name":"Frame",
		"mesh":1
	},
	{
		"name":"Minus",
		"translation":[-250.0,
		0.0,
		-22.435089111328126],
		"rotation":[0.0,
		0.0,
		0.0,
		-1.0],
		"scale":[1.0,
		1.0,
		1.0],
		"mesh":2
	},
	{
		"name":"Left dushka",
		"translation":[-496.87969970703127,
		148.2819061279297,
		37.46564483642578],
		"rotation":[0.0,
		0.0,
		0.0,
		-1.0],
		"scale":[1.0,
		1.0,
		1.0],
		"children":[9]
	},
	{
		"name":"Left dushka",
		"mesh":3
	}],
	"meshes":[{
		"name":"Glass",
		"primitives":[{
			"attributes":{
				"POSITION":1,
				"NORMAL":2,
				"TEXCOORD_0":3
			},
			"indices":0,
			"material":0
		}]
	},
	{
		"name":"Frame",
		"primitives":[{
			"attributes":{
				"POSITION":5,
				"NORMAL":6,
				"TEXCOORD_0":7
			},
			"indices":4,
			"material":1
		}]
	},
	{
		"name":"Minus",
		"primitives":[{
			"attributes":{
				"POSITION":9,
				"NORMAL":10,
				"TEXCOORD_0":11
			},
			"indices":8,
			"material":1
		}]
	},
	{
		"name":"Left dushka",
		"primitives":[{
			"attributes":{
				"POSITION":13,
				"NORMAL":14,
				"TEXCOORD_0":15
			},
			"indices":12,
			"material":1
		}]
	}],
	"cameras":[{
		"type":"perspective",
		"perspective":{
			"znear":0.009999999776482582,
			"zfar":10000000000.0,
			"aspectRatio":1.7777777910232545,
			"yfov":0.5483348965644836
		}
	}],
	"accessors":[{
		"min":[0],
		"bufferView":0,
		"type":"SCALAR",
		"componentType":5123,
		"count":120,
		"byteOffset":0,
		"max":[71]
	},
	{
		"min":[-435.2322692871094,
		-21.894031524658204,
		0.0],
		"bufferView":1,
		"type":"VEC3",
		"componentType":5126,
		"count":72,
		"byteOffset":0,
		"max":[435.2322692871094,
		169.8550262451172,
		10.0]
	},
	{
		"min":[-0.9993395805358887,
		-0.9982744455337524,
		-1.0],
		"bufferView":1,
		"type":"VEC3",
		"componentType":5126,
		"count":72,
		"byteOffset":12,
		"max":[0.9993395805358887,
		1.0,
		1.0]
	},
	{
		"min":[0.0,
		0.0],
		"bufferView":1,
		"type":"VEC2",
		"componentType":5126,
		"count":72,
		"byteOffset":24,
		"max":[1.0,
		1.0]
	},
	{
		"min":[0],
		"bufferView":2,
		"type":"SCALAR",
		"componentType":5123,
		"count":600,
		"byteOffset":0,
		"max":[267]
	},
	{
		"min":[-500.1321716308594,
		-50.12389373779297,
		-1.4210854715202005e-14],
		"bufferView":3,
		"type":"VEC3",
		"componentType":5126,
		"count":268,
		"byteOffset":0,
		"max":[500.1321716308594,
		199.8633270263672,
		50.0]
	},
	{
		"min":[-1.0,
		-1.0,
		-1.0],
		"bufferView":3,
		"type":"VEC3",
		"componentType":5126,
		"count":268,
		"byteOffset":12,
		"max":[1.0,
		1.0,
		1.0]
	},
	{
		"min":[0.0,
		0.0],
		"bufferView":3,
		"type":"VEC2",
		"componentType":5126,
		"count":268,
		"byteOffset":24,
		"max":[1.0,
		1.0]
	},
	{
		"min":[0],
		"bufferView":4,
		"type":"SCALAR",
		"componentType":5123,
		"count":192,
		"byteOffset":0,
		"max":[111]
	},
	{
		"min":[-151.3421630859375,
		0.0820603296160698,
		22.435089111328126],
		"bufferView":5,
		"type":"VEC3",
		"componentType":5126,
		"count":112,
		"byteOffset":0,
		"max":[651.3421630859375,
		149.92550659179688,
		72.43508911132813]
	},
	{
		"min":[-1.0,
		-0.9999922513961792,
		-4.214662681079062e-7],
		"bufferView":5,
		"type":"VEC3",
		"componentType":5126,
		"count":112,
		"byteOffset":12,
		"max":[1.0,
		1.0,
		0.0000027171367946721149]
	},
	{
		"min":[0.0,
		0.22435089945793153],
		"bufferView":5,
		"type":"VEC2",
		"componentType":5126,
		"count":112,
		"byteOffset":24,
		"max":[1.0,
		0.7243508100509644]
	},
	{
		"min":[0],
		"bufferView":6,
		"type":"SCALAR",
		"componentType":5123,
		"count":4296,
		"byteOffset":0,
		"max":[1315]
	},
	{
		"min":[-2.2885818481445314,
		-77.3016128540039,
		-723.2431640625],
		"bufferView":7,
		"type":"VEC3",
		"componentType":5126,
		"count":1316,
		"byteOffset":0,
		"max":[996.0480346679688,
		49.987239837646487,
		1.3379594087600709]
	},
	{
		"min":[-1.0,
		-1.0,
		-1.0],
		"bufferView":7,
		"type":"VEC3",
		"componentType":5126,
		"count":1316,
		"byteOffset":12,
		"max":[1.0,
		1.0,
		1.0]
	},
	{
		"min":[0.0,
		0.0],
		"bufferView":7,
		"type":"VEC2",
		"componentType":5126,
		"count":1316,
		"byteOffset":24,
		"max":[1.0,
		1.0]
	}],
	"bufferViews":[{
		"buffer":0,
		"byteOffset":0,
		"byteLength":240,
		"target":34963
	},
	{
		"buffer":0,
		"byteOffset":240,
		"byteLength":2304,
		"target":34962,
		"byteStride":32
	},
	{
		"buffer":1,
		"byteOffset":0,
		"byteLength":1200,
		"target":34963
	},
	{
		"buffer":1,
		"byteOffset":1200,
		"byteLength":8576,
		"target":34962,
		"byteStride":32
	},
	{
		"buffer":2,
		"byteOffset":0,
		"byteLength":384,
		"target":34963
	},
	{
		"buffer":2,
		"byteOffset":384,
		"byteLength":3584,
		"target":34962,
		"byteStride":32
	},
	{
		"buffer":3,
		"byteOffset":0,
		"byteLength":8592,
		"target":34963
	},
	{
		"buffer":3,
		"byteOffset":8592,
		"byteLength":42112,
		"target":34962,
		"byteStride":32
	}],
	"materials":[{
		"pbrMetallicRoughness":{
			"baseColorFactor":[0.9294117647058824,
			0.403921568627451,
			0.0,
			1.0],
			"metallicFactor":0.0,
			"roughnessFactor":0.5
		},
		"emissiveFactor":[0.0,
		0.0,
		0.0],
		"alphaMode":"OPAQUE",
		"doubleSided":false,
		"name":"Glass 2"
	},
	{
		"pbrMetallicRoughness":{
			"baseColorFactor":[0.04313725490196079,
			0.04313725490196079,
			0.07058823529411765,
			1.0],
			"metallicFactor":0.0,
			"roughnessFactor":0.5
		},
		"emissiveFactor":[0.0,
		0.0,
		0.0],
		"alphaMode":"OPAQUE",
		"doubleSided":false,
		"name":"Dark 2"
	}],
	"buffers":[{
		"uri":"data:application/octet-stream;base64,",
		"byteLength":2544
	},
	{
		"uri":"data:application/octet-stream;base64,",
		"byteLength":9776
	},
	{
		"uri":"data:application/octet-stream;base64,",
		"byteLength":3968
	},
	{
		"uri":"data:application/octet-stream;base64,",
		"byteLength":50704
	}]
}