<svg width="20" height="16" viewBox="0 0 20 16" fill="none" xmlns="http://www.w3.org/2000/svg">
<path d="M1 7C0.447715 7 0 7.44772 0 8C0 8.55228 0.447715 9 1 9V7ZM18.8244 8.70711C19.2149 8.31658 19.2149 7.68342 18.8244 7.29289L12.4604 0.928932C12.0699 0.538408 11.4367 0.538408 11.0462 0.928932C10.6557 1.31946 10.6557 1.95262 11.0462 2.34315L16.703 8L11.0462 13.6569C10.6557 14.0474 10.6557 14.6805 11.0462 15.0711C11.4367 15.4616 12.0699 15.4616 12.4604 15.0711L18.8244 8.70711ZM1 9H18.1172V7H1V9Z" fill="white"/>
</svg>
