<svg width="136" height="53" viewBox="0 0 136 53" fill="none" xmlns="http://www.w3.org/2000/svg">
<rect x="8" y="1" width="127" height="42" stroke="white" stroke-width="2"/>
<path d="M19.4 26V16.228H21.234V24.488H25.56V26H19.4ZM30.7625 26.168C30.1839 26.168 29.6705 26.0793 29.2225 25.902C28.7745 25.7247 28.3965 25.4727 28.0885 25.146C27.7899 24.8193 27.5612 24.4273 27.4025 23.97C27.2439 23.5033 27.1645 22.9807 27.1645 22.402C27.1645 21.814 27.2439 21.2867 27.4025 20.82C27.5705 20.3533 27.8039 19.9567 28.1025 19.63C28.4012 19.3033 28.7605 19.0513 29.1805 18.874C29.6099 18.6967 30.0905 18.608 30.6225 18.608C31.1452 18.608 31.6165 18.6967 32.0365 18.874C32.4565 19.042 32.8112 19.2847 33.1005 19.602C33.3992 19.9193 33.6279 20.302 33.7865 20.75C33.9452 21.198 34.0245 21.6927 34.0245 22.234V22.822H28.9565V23.004C28.9565 23.5267 29.1199 23.9513 29.4465 24.278C29.7732 24.5953 30.2305 24.754 30.8185 24.754C31.2665 24.754 31.6492 24.6653 31.9665 24.488C32.2932 24.3013 32.5639 24.0587 32.7785 23.76L33.8005 24.782C33.5392 25.1647 33.1565 25.4913 32.6525 25.762C32.1579 26.0327 31.5279 26.168 30.7625 26.168ZM30.6365 19.924C30.1325 19.924 29.7265 20.0827 29.4185 20.4C29.1105 20.7173 28.9565 21.1373 28.9565 21.66V21.758H32.2325V21.632C32.2325 21.1093 32.0879 20.694 31.7985 20.386C31.5185 20.078 31.1312 19.924 30.6365 19.924ZM41.6491 26C41.2104 26 40.8697 25.8927 40.6271 25.678C40.3937 25.454 40.2537 25.146 40.2071 24.754H40.1371C40.0064 25.202 39.7497 25.552 39.3671 25.804C38.9844 26.0467 38.5131 26.168 37.9531 26.168C37.2251 26.168 36.6464 25.9767 36.2171 25.594C35.7877 25.2113 35.5731 24.6793 35.5731 23.998C35.5731 22.542 36.6417 21.814 38.7791 21.814H40.0531V21.338C40.0531 20.8807 39.9411 20.5353 39.7171 20.302C39.4931 20.0687 39.1291 19.952 38.6251 19.952C38.1677 19.952 37.7991 20.0407 37.5191 20.218C37.2391 20.3953 37.0011 20.624 36.8051 20.904L35.7831 20.036C36.0071 19.6347 36.3664 19.2987 36.8611 19.028C37.3651 18.748 38.0137 18.608 38.8071 18.608C39.7591 18.608 40.5011 18.832 41.0331 19.28C41.5744 19.7187 41.8451 20.3767 41.8451 21.254V24.656H42.6991V26H41.6491ZM38.5551 24.936C38.9844 24.936 39.3391 24.838 39.6191 24.642C39.9084 24.4367 40.0531 24.1613 40.0531 23.816V22.85H38.8211C37.8411 22.85 37.3511 23.158 37.3511 23.774V24.054C37.3511 24.3433 37.4584 24.5627 37.6731 24.712C37.8877 24.8613 38.1817 24.936 38.5551 24.936ZM46.3056 26L43.7156 18.776H45.5916L46.5576 21.842L47.3696 24.502H47.4676L48.2796 21.842L49.2456 18.776H51.0516L48.4616 26H46.3056ZM55.9461 26.168C55.3675 26.168 54.8541 26.0793 54.4061 25.902C53.9581 25.7247 53.5801 25.4727 53.2721 25.146C52.9735 24.8193 52.7448 24.4273 52.5861 23.97C52.4275 23.5033 52.3481 22.9807 52.3481 22.402C52.3481 21.814 52.4275 21.2867 52.5861 20.82C52.7541 20.3533 52.9875 19.9567 53.2861 19.63C53.5848 19.3033 53.9441 19.0513 54.3641 18.874C54.7935 18.6967 55.2741 18.608 55.8061 18.608C56.3288 18.608 56.8001 18.6967 57.2201 18.874C57.6401 19.042 57.9948 19.2847 58.2841 19.602C58.5828 19.9193 58.8115 20.302 58.9701 20.75C59.1288 21.198 59.2081 21.6927 59.2081 22.234V22.822H54.1401V23.004C54.1401 23.5267 54.3035 23.9513 54.6301 24.278C54.9568 24.5953 55.4141 24.754 56.0021 24.754C56.4501 24.754 56.8328 24.6653 57.1501 24.488C57.4768 24.3013 57.7475 24.0587 57.9621 23.76L58.9841 24.782C58.7228 25.1647 58.3401 25.4913 57.8361 25.762C57.3415 26.0327 56.7115 26.168 55.9461 26.168ZM55.8201 19.924C55.3161 19.924 54.9101 20.0827 54.6021 20.4C54.2941 20.7173 54.1401 21.1373 54.1401 21.66V21.758H57.4161V21.632C57.4161 21.1093 57.2715 20.694 56.9821 20.386C56.7021 20.078 56.3148 19.924 55.8201 19.924ZM74.6532 26L73.9672 23.522H71.0692L70.3972 26H68.5492L71.2932 16.228H73.8412L76.5992 26H74.6532ZM72.5812 18.034H72.4692L71.3912 22.024H73.6592L72.5812 18.034ZM87.8023 18.986H87.6623V26H86.0943V16.228H88.3483L90.9103 23.242H91.0503V16.228H92.6183V26H90.3643L87.8023 18.986ZM97.7508 26.168C97.2001 26.168 96.7054 26.0793 96.2668 25.902C95.8374 25.7247 95.4688 25.4727 95.1608 25.146C94.8621 24.8193 94.6288 24.4227 94.4608 23.956C94.3021 23.4893 94.2228 22.9667 94.2228 22.388C94.2228 21.8093 94.3021 21.2867 94.4608 20.82C94.6288 20.3533 94.8621 19.9567 95.1608 19.63C95.4688 19.3033 95.8374 19.0513 96.2668 18.874C96.7054 18.6967 97.2001 18.608 97.7508 18.608C98.2921 18.608 98.7821 18.6967 99.2208 18.874C99.6594 19.0513 100.028 19.3033 100.327 19.63C100.635 19.9567 100.868 20.3533 101.027 20.82C101.195 21.2867 101.279 21.8093 101.279 22.388C101.279 22.9667 101.195 23.4893 101.027 23.956C100.868 24.4227 100.635 24.8193 100.327 25.146C100.028 25.4727 99.6594 25.7247 99.2208 25.902C98.7821 26.0793 98.2921 26.168 97.7508 26.168ZM97.7508 24.796C98.2641 24.796 98.6701 24.642 98.9688 24.334C99.2674 24.0167 99.4168 23.5547 99.4168 22.948V21.828C99.4168 21.2213 99.2674 20.764 98.9688 20.456C98.6701 20.1387 98.2641 19.98 97.7508 19.98C97.2374 19.98 96.8314 20.1387 96.5328 20.456C96.2341 20.764 96.0848 21.2213 96.0848 21.828V22.948C96.0848 23.5547 96.2341 24.0167 96.5328 24.334C96.8314 24.642 97.2374 24.796 97.7508 24.796ZM106.635 26C105.945 26 105.436 25.818 105.109 25.454C104.783 25.09 104.619 24.6187 104.619 24.04V20.19H102.519V18.776H103.947C104.237 18.776 104.442 18.72 104.563 18.608C104.685 18.4867 104.745 18.2767 104.745 17.978V16.228H106.411V18.776H109.351V20.19H106.411V24.586H109.351V26H106.635ZM114.708 26.168C114.129 26.168 113.616 26.0793 113.168 25.902C112.72 25.7247 112.342 25.4727 112.034 25.146C111.735 24.8193 111.507 24.4273 111.348 23.97C111.189 23.5033 111.11 22.9807 111.11 22.402C111.11 21.814 111.189 21.2867 111.348 20.82C111.516 20.3533 111.749 19.9567 112.048 19.63C112.347 19.3033 112.706 19.0513 113.126 18.874C113.555 18.6967 114.036 18.608 114.568 18.608C115.091 18.608 115.562 18.6967 115.982 18.874C116.402 19.042 116.757 19.2847 117.046 19.602C117.345 19.9193 117.573 20.302 117.732 20.75C117.891 21.198 117.97 21.6927 117.97 22.234V22.822H112.902V23.004C112.902 23.5267 113.065 23.9513 113.392 24.278C113.719 24.5953 114.176 24.754 114.764 24.754C115.212 24.754 115.595 24.6653 115.912 24.488C116.239 24.3013 116.509 24.0587 116.724 23.76L117.746 24.782C117.485 25.1647 117.102 25.4913 116.598 25.762C116.103 26.0327 115.473 26.168 114.708 26.168ZM114.582 19.924C114.078 19.924 113.672 20.0827 113.364 20.4C113.056 20.7173 112.902 21.1373 112.902 21.66V21.758H116.178V21.632C116.178 21.1093 116.033 20.694 115.744 20.386C115.464 20.078 115.077 19.924 114.582 19.924Z" fill="white"/>
<path d="M1 9L8 1" stroke="white" stroke-width="2" stroke-linecap="round"/>
<path d="M1 51L8 43" stroke="white" stroke-width="2" stroke-linecap="round"/>
<path d="M129 52L135 43" stroke="white" stroke-width="2" stroke-linecap="round"/>
<path d="M1 9V52H129" stroke="white" stroke-width="2"/>
</svg>
